<svg width="68" height="15" viewBox="0 0 68 15" fill="none" xmlns="http://www.w3.org/2000/svg">
<path d="M52.1395 0.0241229C52.5665 0.0158577 53.8314 -0.0694832 54.0264 0.140135H54.0808V0.546226C53.0383 4.89413 51.9958 9.24273 50.9531 13.5897C50.8771 13.6352 50.7366 13.7504 50.6837 13.8218H49.4974C49.3257 13.8208 49.1033 13.8506 49.0116 13.7636C48.7572 13.7016 48.7307 13.5333 48.7423 13.1837C48.8515 13.0493 48.7902 12.9093 48.8505 12.7197H48.9042V12.4884C49.1123 11.8694 49.2421 11.0921 49.4429 10.459C49.4792 10.228 49.5156 9.99516 49.552 9.76394C49.9271 8.64365 50.1087 7.29961 50.4674 6.16936C50.5401 5.78319 50.6112 5.39622 50.6838 5.01014C51.0788 3.40669 51.4744 1.80154 51.8702 0.19819C51.9643 0.155869 52.0766 0.103589 52.1395 0.0241229Z" fill="#111111"/>
<path d="M38.7674 0.488188C39.3358 0.482413 39.8877 0.470762 40.2776 0.662256V0.719415H40.385C40.4031 0.759148 40.4213 0.797188 40.4395 0.836124H40.5468C40.6725 0.990276 40.7989 1.14443 40.9236 1.29947C40.9599 1.31839 40.9962 1.33841 41.0327 1.35823C41.4573 2.03349 41.7134 3.46297 41.5177 4.60407C41.4152 4.66282 41.2964 4.79208 41.1938 4.83609C41.05 4.85511 40.9063 4.87503 40.7615 4.89415V4.9522H40.5468C40.1395 5.09879 39.904 5.25453 39.4688 5.06722C39.4497 5.01016 39.4325 4.9522 39.4151 4.89415H39.3606V4.31409H39.306V3.90879H39.2533V3.61802H39.1985V3.38689H39.1448C39.1276 3.27088 39.1093 3.15487 39.0912 3.03886C39.0012 2.8847 38.9111 2.72976 38.8218 2.5756C38.3972 2.7902 38.3527 3.15148 38.1204 3.56096C38.0851 3.58008 38.0487 3.59989 38.0123 3.61802V3.79209H37.9587C37.9413 3.86996 37.9231 3.94793 37.905 4.02481H37.8503V4.19887H37.7974C37.7793 4.35303 37.7612 4.50797 37.743 4.66222H37.6885C37.5984 4.98945 37.7315 5.37811 37.743 5.64837C37.8718 5.73352 37.8305 5.81975 37.905 5.8794H38.0123V5.93746C38.1204 5.97639 38.2289 6.01453 38.3362 6.05347V6.11153C38.4617 6.13134 38.5881 6.15046 38.713 6.17028V6.22754C38.8391 6.24735 38.9658 6.26568 39.0913 6.28559V6.34365H39.2533V6.4017C39.3607 6.43984 39.4689 6.47878 39.5762 6.51772V6.57577H39.6845C39.7556 6.67276 39.8283 6.76966 39.8993 6.86486C39.9356 6.88487 39.972 6.90379 40.0084 6.92381V7.03892H40.0621C40.0976 7.15494 40.1339 7.27184 40.1695 7.38696H40.2231V7.56103H40.2778C40.3496 7.77981 40.4726 8.97388 40.3852 9.30031H40.3306V9.64834H40.2778C40.2595 9.80259 40.2415 9.95744 40.2231 10.1116H40.1695C40.1339 10.2855 40.0976 10.4594 40.0621 10.6335H40.0084V10.7495H39.9538V10.9235H39.8993C39.8637 11.0395 39.8283 11.1555 39.792 11.2715H39.7374C39.72 11.3486 39.7026 11.4258 39.6845 11.5028C39.6482 11.5227 39.6125 11.5425 39.5762 11.5616C39.5588 11.6387 39.5409 11.7157 39.5225 11.7936C39.4689 11.8318 39.4152 11.8707 39.3607 11.9088V12.0246C39.3251 12.0447 39.2887 12.0638 39.2533 12.0827V12.1987C39.1623 12.2758 39.0733 12.3529 38.9832 12.4307V12.5467C38.8568 12.6628 38.7311 12.7788 38.6054 12.8948C38.5691 12.952 38.5343 13.0108 38.498 13.0688H38.3907C38.3362 13.1458 38.2816 13.223 38.2289 13.3H38.1204C38.0851 13.358 38.0487 13.4168 38.0123 13.474H37.905C37.8866 13.513 37.8687 13.5509 37.8503 13.5901C37.7793 13.6099 37.7074 13.629 37.6356 13.6479V13.7061H37.5272V13.7639C37.4198 13.8021 37.3117 13.8419 37.2044 13.8799V13.9379C37.078 13.9569 36.9515 13.976 36.8259 13.9959V14.0539H36.5568V14.112C36.2046 14.2196 35.6966 14.0729 35.4785 13.9959C35.3523 13.976 35.227 13.9569 35.1009 13.9379V13.8799H34.9936V13.8221H34.8855C34.8677 13.7838 34.8498 13.745 34.8313 13.7061C34.7594 13.687 34.6876 13.6679 34.6156 13.6479C34.5801 13.5901 34.5436 13.5319 34.5083 13.474C34.4182 13.397 34.3278 13.3198 34.238 13.2428V13.126C34.2025 13.107 34.1661 13.0878 34.1307 13.0688V12.952L34.0223 12.8367V12.7207H33.9691V12.6047H33.915V12.4887H33.861C33.8253 12.2376 33.7889 11.9857 33.7535 11.7356H33.6992C33.6816 11.3875 33.6631 11.0395 33.6452 10.6923C33.6992 10.4986 33.7535 10.3054 33.8069 10.1115C33.9118 10.0525 34.0266 9.92916 34.1307 9.88027H34.2921V9.82231H34.4542V9.76426H34.6156V9.7063H34.778V9.64824H34.8855V9.59029H35.0468V9.53223C35.3051 9.42209 35.5537 9.4212 35.9098 9.41622C36.0913 9.79244 36.0213 10.5946 36.018 11.1555C36.1155 11.2781 36.0189 11.4853 36.0709 11.6768C36.1253 11.8507 36.18 12.0246 36.2327 12.1987C36.3203 12.2335 36.3618 12.2501 36.5028 12.2567C36.598 12.1407 36.6211 12.2088 36.7186 12.1407C36.7369 12.1017 36.7549 12.0638 36.773 12.0246H36.8806C36.917 11.9676 36.9516 11.9088 36.9879 11.8507H37.0424V11.7356C37.1134 11.6768 37.1854 11.6195 37.2572 11.5616V11.4456C37.2935 11.4258 37.3299 11.4066 37.3663 11.3868V11.2715H37.4199C37.4556 11.1555 37.492 11.0395 37.5273 10.9235H37.5812C37.5993 10.8075 37.6174 10.6924 37.6357 10.5754H37.6886C37.7074 10.3826 37.7247 10.1885 37.7431 9.99638H37.7975C37.8688 9.72542 37.7787 8.88515 37.6886 8.7783C37.5812 8.34991 37.1474 8.22065 36.773 8.08313H36.5568V8.02517C36.4493 8.00615 36.3418 7.98624 36.2327 7.96712V7.90916C36.1609 7.88934 36.0889 7.87092 36.018 7.85111V7.79385H35.9098C35.8925 7.75421 35.8742 7.71597 35.8561 7.67714H35.7487C35.7124 7.61988 35.676 7.56113 35.6396 7.50307C35.5867 7.48395 35.5323 7.46413 35.4784 7.44601V7.3291C35.4243 7.29017 35.3709 7.25203 35.3165 7.21309V7.09797C35.2802 7.07796 35.2448 7.05904 35.2082 7.03902V6.86495H35.1551V6.74984H35.1008V6.51782C34.9522 6.01404 35.0848 5.28809 35.2082 4.89455V4.66252H35.2625V4.48846H35.3165V4.31439H35.3709V4.14032H35.4243V3.96625H35.4784C35.4962 3.88918 35.5149 3.8121 35.5323 3.73513H35.5867V3.56106H35.6396V3.44505H35.6941V3.32903C35.7304 3.30991 35.7661 3.2899 35.8024 3.27098C35.8378 3.15497 35.8742 3.03895 35.9098 2.92374C35.9452 2.90392 35.9816 2.8848 36.018 2.86499V2.74977C36.0535 2.72986 36.0889 2.71084 36.1253 2.69102V2.5758C36.1609 2.55599 36.1973 2.53687 36.2327 2.51705C36.2517 2.45979 36.269 2.40184 36.2873 2.34298C36.3418 2.30484 36.3954 2.26591 36.4493 2.22777V2.11176C36.6112 1.95681 36.773 1.80276 36.9343 1.64781C37.0243 1.5318 37.1134 1.41588 37.2045 1.29987H37.3118C37.3481 1.24182 37.3837 1.18456 37.4199 1.12581H37.5273C37.5447 1.08767 37.5637 1.04873 37.5812 1.01059H37.6886C37.7074 0.971654 37.7247 0.932718 37.7431 0.893782H37.8504V0.836523C37.9231 0.816706 37.9942 0.797586 38.0661 0.778467V0.719714H38.229V0.662555H38.3363V0.604499C38.5046 0.5329 38.6434 0.608183 38.7674 0.488188Z" fill="#111111"/>
<path d="M5.33818 0.720078C5.37541 0.88588 5.43448 0.865267 5.4456 0.894145C5.48194 1.53136 5.51748 2.16938 5.55382 2.80749C5.62739 3.08921 5.52403 3.5905 5.60793 3.90866C5.68646 4.21288 5.66114 4.72911 5.66114 5.12514V7.32947H5.71525V7.21256C5.81691 7.11726 5.91838 6.93254 5.9849 6.80746V6.69145C6.02044 6.67163 6.05688 6.65331 6.09242 6.63339C6.12915 6.51738 6.1647 6.40137 6.20103 6.28536C6.23658 6.26634 6.27292 6.24642 6.30846 6.2281C6.32623 6.15023 6.34479 6.07245 6.36257 5.99528C6.39811 5.97546 6.43445 5.95714 6.46999 5.93722C6.50633 5.82121 6.54187 5.706 6.57821 5.58919C6.61365 5.57017 6.65009 5.55105 6.68563 5.53213C6.70429 5.45505 6.72197 5.37628 6.73974 5.29911C6.77607 5.28099 6.81162 5.26117 6.84795 5.24205C6.8834 5.12504 6.91983 5.01003 6.95538 4.89401C6.99211 4.8742 7.02775 4.85587 7.0631 4.83596C7.09944 4.71995 7.13577 4.60463 7.17141 4.48792C7.20696 4.4688 7.24329 4.44899 7.27884 4.43066V4.31395H7.33285V4.19794C7.36918 4.17962 7.40473 4.1598 7.44106 4.14068C7.47651 4.02397 7.51294 3.90866 7.54859 3.79265C7.58492 3.77283 7.62037 3.75471 7.6567 3.73479V3.61878H7.71002V3.50187C7.74635 3.48375 7.7819 3.46393 7.81823 3.44481C7.85368 3.3288 7.89011 3.21279 7.92605 3.09678C7.96239 3.07696 7.99793 3.05864 8.03427 3.03872C8.06971 2.92271 8.10615 2.80749 8.14159 2.69148C8.17793 2.67167 8.21357 2.65185 8.24991 2.63343C8.26768 2.55635 8.28555 2.47768 8.30322 2.40061C8.33956 2.38228 8.37501 2.36247 8.41134 2.34335C8.44698 2.22654 8.48332 2.11132 8.51877 1.99531C8.5551 1.97549 8.59074 1.95727 8.62708 1.93745C8.64475 1.86038 8.66262 1.7833 8.68109 1.70623C8.71673 1.68641 8.75307 1.66729 8.78851 1.64738C8.82525 1.53136 8.86089 1.41545 8.89723 1.29944C8.93287 1.28032 8.96831 1.2612 9.00465 1.24218V1.12537H9.05866V1.01016C9.0942 0.99034 9.13064 0.971221 9.16608 0.951404C9.26606 0.802232 9.1079 0.84535 9.32771 0.777337C9.44715 0.634737 9.66686 0.662221 9.92171 0.662221H11.3766C11.4425 0.785701 11.4983 0.788191 11.5394 0.951404H11.5925C11.5748 1.10635 11.5571 1.2612 11.5394 1.41545H11.4848V1.64738H11.4307V1.8793C11.2506 2.44123 11.1253 3.11161 10.9462 3.67584C10.9275 3.83168 10.9099 3.98574 10.8921 4.14058C10.5434 5.22711 10.374 6.47168 10.0291 7.56039C9.95736 7.94657 9.88538 8.33364 9.8134 8.71962C9.6062 9.33961 9.47396 10.1167 9.2744 10.749C9.25573 10.9039 9.23806 11.0581 9.22039 11.213C8.98946 11.9405 8.7771 12.8007 8.62718 13.5896C8.55034 13.6351 8.41075 13.7502 8.35743 13.8216C7.74159 13.8256 6.99807 13.868 6.47019 13.7635C6.45232 13.7056 6.43464 13.6475 6.41687 13.5896H6.36276V13.2424H6.41687V13.0096H6.47019V12.7783H6.5243V12.5463H6.5783C6.59608 12.4105 6.61375 12.2763 6.63231 12.1402C6.83108 11.5727 6.93512 10.8601 7.11731 10.2849C7.13587 10.1309 7.15364 9.97673 7.17141 9.82188H7.22542C7.36918 9.16464 7.51294 8.50771 7.6566 7.85047H7.60259V7.90853C7.49686 8.01209 7.55792 8.0353 7.49438 8.14055C7.45883 8.15957 7.4225 8.17949 7.38695 8.19851V8.31452H7.33285V8.43053C7.2974 8.44965 7.26097 8.46877 7.22542 8.48759V8.6046H7.17141V8.71962C7.13577 8.73963 7.09944 8.75855 7.0631 8.77857C7.04543 8.85564 7.02775 8.93262 7.00988 9.0097C6.97305 9.02951 6.93761 9.04863 6.90127 9.06765C6.8835 9.14473 6.86573 9.2226 6.84795 9.29967C6.81162 9.3187 6.77607 9.33861 6.73974 9.35773C6.72197 9.43471 6.70429 9.51188 6.68563 9.58976H6.63231C6.61375 9.64771 6.59608 9.70577 6.5783 9.76372C6.54197 9.78274 6.50643 9.80266 6.47009 9.82178V9.93679C6.41677 9.97663 6.36267 10.0148 6.30856 10.0538V10.1698C6.25534 10.1888 6.20113 10.2078 6.14712 10.2278C6.11148 10.2848 6.07475 10.3428 6.0393 10.4018C5.92126 10.4821 5.36439 10.5914 5.12234 10.5169V10.4588H4.63685V10.4018H4.25928V10.3428C4.16556 10.3056 4.1193 10.3189 4.04374 10.2848C4.01148 10.2187 3.95072 10.1962 3.93632 10.1698V10.0538H3.88221V9.82178H3.8281C3.84667 9.66673 3.86444 9.51188 3.88221 9.35773V7.96638C3.88221 7.69055 3.95995 7.0848 3.8281 6.92228C3.30687 9.14473 2.78594 11.3679 2.26462 13.5896C2.18777 13.6351 2.04818 13.7502 1.99487 13.8216H0.215739C0.150511 13.6981 0.0939205 13.6956 0.0542078 13.5315H0C0.0176721 13.3774 0.0363371 13.2225 0.0540092 13.0683H0.108118V12.8355C0.312241 12.205 0.438229 11.426 0.647217 10.8069V10.5759C0.783928 10.1501 0.888075 9.60887 1.02439 9.18376C1.04206 9.02961 1.06073 8.87466 1.0784 8.71972C1.4651 7.51429 1.64847 6.09138 2.04878 4.89411C2.06645 4.73917 2.08511 4.58501 2.10279 4.43076C2.21438 4.08123 2.31515 3.62037 2.42585 3.27084C2.44481 3.11669 2.46258 2.96174 2.48025 2.80759C2.6121 2.39244 2.72608 1.88627 2.85743 1.47351V1.24238C2.91729 1.05517 2.97597 0.874528 3.12717 0.777536C3.25604 0.638322 3.51388 0.66242 3.77449 0.66242C4.28976 0.661325 4.9073 0.631451 5.33818 0.720078Z" fill="#111111"/>
<path d="M21.6217 4.02388H22.7006C22.7182 4.08193 22.736 4.14059 22.7539 4.19794H22.8079C22.7902 4.33298 22.7723 4.4689 22.7539 4.60404H22.7006V4.83606H22.6465V5.01013H22.5919V5.18419H22.5386V5.41622H22.4846C22.3974 5.60911 22.4323 5.7061 22.2149 5.76425C22.0662 5.90914 21.4495 5.82719 21.1905 5.82131C20.5796 8.41002 19.9682 11.001 19.3573 13.5898C19.2805 13.6353 19.1409 13.7513 19.0876 13.8218C18.6661 13.8309 17.4481 13.9137 17.2545 13.7058C17.1932 13.6395 17.233 13.7058 17.2011 13.5898H17.1467V13.1266H17.2011V12.8938C17.2846 12.6319 17.3871 12.283 17.47 12.0253C17.4887 11.8695 17.5063 11.7154 17.5242 11.5613C17.8 10.7011 17.9529 9.68934 18.2255 8.83682V8.6048H18.2788V8.37178H18.3329V8.14075H18.387V7.90873C18.4741 7.63608 18.5696 7.25498 18.6559 6.98064V6.74861C18.7481 6.46023 18.8562 6.21008 18.8714 5.82141C18.5807 5.8256 18.2795 5.80747 18.0626 5.76435C18.0416 5.54458 17.9891 5.47925 18.0626 5.24225H18.117V5.01023H18.1712C18.189 4.8744 18.2067 4.74006 18.2252 4.60414H18.2785V4.37211C18.2868 4.3523 18.4847 4.02985 18.4941 4.02408H19.357C19.3612 3.75391 19.4561 3.58323 19.5185 3.38696V3.15493C19.6064 2.88128 19.7012 2.50019 19.7882 2.22764V1.99561H19.8422V1.76279H19.8955C19.9818 1.5714 19.889 1.53993 20.1117 1.47361C20.3348 1.22834 21.8384 1.35431 22.1072 1.47361C22.1419 1.57309 22.1581 1.65514 22.1606 1.82174C22.0515 1.95349 22.1121 2.09838 22.0531 2.28489H21.9991V2.51771C21.8563 2.97141 21.7125 3.52677 21.6217 4.02388Z" fill="#111111"/>
<path d="M58.1247 3.85073V3.90779H58.3931V3.96585H58.5551V4.0246C58.6642 4.06274 58.7717 4.10167 58.879 4.13991V4.19867H58.9864V4.25593C59.084 4.33967 59.1163 4.38767 59.2565 4.42999C59.2971 4.57996 59.34 4.618 59.4186 4.72007H59.4723V4.83609C59.5086 4.85511 59.545 4.87502 59.5796 4.89414V5.01015H59.6341C59.6524 5.08703 59.6704 5.1641 59.6887 5.24118H59.7424V5.41525H59.7961V5.64827H59.8499V6.11132H59.9035C59.9811 6.40966 59.9084 7.74465 59.8499 7.96661V8.3727C59.7424 8.87469 59.6341 9.37698 59.5267 9.87916H59.4723V10.053H59.4186V10.17H59.3639V10.343H59.3103V10.5171H59.2565C59.2202 10.6341 59.1848 10.7491 59.1492 10.8651H59.0955V10.9803H59.041V11.1544C59.0055 11.1742 58.969 11.194 58.9337 11.2132V11.3284H58.879V11.4452L58.7717 11.5612V11.6764C58.7353 11.6962 58.699 11.7153 58.6642 11.7352C58.646 11.8122 58.6279 11.8894 58.6096 11.9663H58.5551C58.5377 12.0242 58.5205 12.0833 58.5022 12.1403C58.4659 12.1603 58.4304 12.1785 58.3931 12.1983V12.3143C58.3584 12.3343 58.3221 12.3525 58.2858 12.3723L58.2321 12.5463C58.1603 12.6035 58.0883 12.6624 58.0165 12.7203V12.8363C57.9092 12.9333 57.8009 13.0287 57.6935 13.1256C57.6745 13.1645 57.6571 13.2027 57.6397 13.2416H57.5306C57.4777 13.3194 57.4233 13.3966 57.3688 13.4736H57.2613L57.2076 13.5897H57.1002V13.6475C56.992 13.6866 56.8847 13.7245 56.7764 13.7635V13.8217C56.669 13.8405 56.5607 13.8606 56.4532 13.8795V13.9375H55.3199V13.8795H55.1587V13.8217H54.9977V13.7636H54.8885V13.7066H54.7811C54.7631 13.6667 54.7448 13.6278 54.7267 13.5898H54.6193C54.512 13.4547 54.4044 13.3195 54.2954 13.1845L54.1342 13.0684C53.6693 12.3583 53.385 10.5784 53.7022 9.41581V9.06778H53.7566V8.7778H53.8113V8.54667H53.8641V8.3727H53.9187V8.14068H53.9732V7.96661H54.0268V7.79264H54.0805V7.61858H54.1342V7.44451H54.1881V7.3285H54.2417V7.15443H54.2954V7.03842H54.3499V6.86535H54.4044C54.4219 6.78827 54.4393 6.7104 54.4573 6.63332H54.512V6.45925H54.5656C54.601 6.34324 54.6375 6.22723 54.673 6.11122H54.7267V5.99521H54.7811L54.8358 5.76318H54.8885C54.9075 5.70513 54.9249 5.64817 54.9432 5.58912C54.9795 5.5701 55.0149 5.55098 55.0513 5.53106V5.41505C55.0869 5.39692 55.1234 5.37711 55.1587 5.35699V5.24098C55.266 5.14499 55.3744 5.04879 55.4818 4.9519C55.5001 4.89384 55.5181 4.83589 55.5363 4.77783H55.6438L55.8603 4.48775H55.9676C56.004 4.42969 56.0394 4.37244 56.0758 4.31368L56.3989 4.19837V4.13962C56.4707 4.1205 56.5426 4.10148 56.6146 4.08156V4.0246C56.807 3.93428 57.7992 3.74707 58.1247 3.85073ZM57.3161 5.99521C57.1897 6.11122 57.065 6.22723 56.9385 6.34324V6.45925C56.9022 6.47837 56.8665 6.49739 56.8302 6.51731V6.63332C56.7949 6.65244 56.7584 6.67146 56.7229 6.69138C56.7047 6.76845 56.6865 6.84533 56.6684 6.92251H56.6138C56.5964 7.00038 56.579 7.07745 56.5609 7.15543H56.5063V7.3285H56.4526V7.44451H56.399V7.61858H56.3453V7.73459H56.2916C56.2733 7.8506 56.2553 7.96661 56.237 8.08262H56.1843V8.19794H56.1296C55.9859 8.75868 55.8421 9.31892 55.6984 9.87996V10.2861H55.6439C55.5258 10.7367 55.7727 11.6897 55.9677 11.7925H56.2916C56.3833 11.6765 56.4163 11.7444 56.5063 11.6773C56.579 11.5803 56.6509 11.4834 56.7229 11.3872C56.7584 11.3674 56.7949 11.3483 56.8302 11.3293V11.2133C56.8665 11.1934 56.9022 11.1743 56.9385 11.1552C56.9559 11.0782 56.974 11.001 56.9922 10.9232H57.0459V10.8072H57.0997C57.136 10.6911 57.1723 10.5751 57.2088 10.4591H57.2615V10.2862H57.3161L57.3698 10.0541H57.4235C57.4416 9.93812 57.4598 9.82111 57.4772 9.70609H57.5316V9.53203H57.5853V9.35806H57.6391V9.18399H57.6927V9.01002H57.7474V8.71994H57.8018V8.48891H57.8547V8.14088H57.9094V7.79284H57.963V7.09677C57.963 7.09677 58.0414 7.05047 58.0167 6.9227H57.963V6.4016H57.9094L57.8547 6.11152C57.7844 6.06432 57.791 6.07089 57.7474 5.99551L57.3161 5.99521Z" fill="#111111"/>
<path d="M15.2049 3.96668V4.02374H15.4747V4.0818H15.6361V4.14055C15.744 4.17869 15.8522 4.21763 15.9596 4.25587V4.31462H16.0677C16.1032 4.37188 16.1397 4.42993 16.1752 4.48869H16.2833L16.3908 4.604V4.72001L16.5524 4.83602V4.95204C16.5887 4.97106 16.6242 4.99097 16.6609 5.01009C16.6964 5.18416 16.7329 5.35813 16.7683 5.5312C16.8171 5.6979 16.8919 6.20486 16.8225 6.45929H16.7683V6.74838H16.715V6.92245H16.661C16.6433 7.05847 16.6243 7.19341 16.6066 7.32854H16.5526C16.5346 7.40561 16.5169 7.48348 16.4993 7.56056H16.4451V7.73463H16.391V7.85064H16.337V7.96665L16.2295 8.02471L16.1755 8.25673C16.1399 8.27575 16.1035 8.29487 16.068 8.31469V8.4307C16.0319 8.44982 15.9962 8.46894 15.9599 8.48875V8.60477C15.9245 8.62379 15.8879 8.64271 15.8525 8.66272V8.77784C15.7984 8.81677 15.7443 8.85581 15.6904 8.89385V9.00986C15.5823 9.10675 15.475 9.20365 15.3666 9.29984V9.41585C15.2228 9.55089 15.0791 9.68681 14.9354 9.82095C14.9 9.8799 14.8636 9.93796 14.828 9.99512H14.7193C14.6475 10.0921 14.5755 10.189 14.5038 10.286H14.3964C14.3785 10.3239 14.3601 10.363 14.3422 10.402H14.2348C14.1984 10.459 14.163 10.517 14.1266 10.575C14.0547 10.5941 13.9829 10.614 13.9105 10.633C13.8928 10.6712 13.875 10.7109 13.8572 10.749H13.7491C13.5563 10.866 13.4244 10.9835 13.1564 11.0389C13.1511 11.3581 13.1183 11.4294 13.1564 11.677C13.2257 11.7111 13.2713 11.7333 13.3178 11.7923C13.707 11.6992 13.892 11.412 14.1267 11.1549C14.1808 11.116 14.2349 11.078 14.2882 11.0389V10.9229C14.3172 10.8808 14.6555 10.6113 14.7194 10.6329V10.6909L15.0438 10.8069C15.0615 10.8451 15.0792 10.884 15.0978 10.9229C15.1688 10.942 15.2416 10.9619 15.3126 10.981C15.3312 11.0191 15.3489 11.058 15.3666 11.0962C15.5103 11.1741 15.6542 11.2518 15.7983 11.329L15.8524 11.6183H15.7983C15.7281 11.972 15.4604 12.1551 15.2591 12.3721C15.0614 12.6041 14.8636 12.8362 14.6659 13.0674H14.5578L14.3964 13.3002H14.2881C14.2527 13.3575 14.2171 13.4155 14.1807 13.4743H14.0732C14.0369 13.5313 14.0012 13.5895 13.9649 13.6482H13.8572C13.8385 13.6865 13.8209 13.7253 13.8032 13.7634H13.695V13.8215C13.5318 13.9225 13.1081 14.1662 12.7789 14.0533V13.9954C12.6706 13.9765 12.5632 13.9563 12.455 13.9373V13.8794H12.3476V13.8215C12.186 13.7634 12.0242 13.7055 11.8617 13.6482C11.8441 13.6093 11.8264 13.5695 11.8084 13.5313H11.7003L11.6463 13.4155C11.5388 13.3185 11.4313 13.2231 11.3232 13.1262V13.0102H11.2692C11.2176 12.9389 11.2291 12.8976 11.1613 12.8362C11.1436 12.5851 11.125 12.3332 11.1073 12.0821H11.0533C11.0717 11.6381 11.0896 11.1931 11.1073 10.7488H11.1613L11.215 9.99492H11.2692C11.2877 9.82075 11.3054 9.64688 11.3232 9.47371H11.3773C11.4129 9.24169 11.4493 9.00966 11.4848 8.77764H11.5388L11.593 8.37155H11.6463V8.19778H11.7003V8.02451H11.7543V7.85044H11.8084V7.67647H11.8617C11.8981 7.5024 11.9337 7.32844 11.97 7.15537H12.0241V7.03935H12.0774V6.86529H12.1318L12.1858 6.57521H12.2391V6.45919H12.2933V6.28513H12.3473C12.3828 6.16911 12.4191 6.0531 12.4547 5.93789H12.5088C12.5265 5.86002 12.5452 5.78294 12.5629 5.70507C12.5984 5.68605 12.6348 5.66693 12.6703 5.64701C12.6889 5.56994 12.7066 5.49286 12.7245 5.41598L12.8859 5.29898V5.18396C12.9768 5.10589 13.0664 5.02901 13.1561 4.95194C13.228 4.85494 13.2998 4.75805 13.3717 4.66186H13.4791C13.5155 4.6038 13.5509 4.54585 13.5872 4.48859H13.6947C13.7133 4.44895 13.731 4.41071 13.7489 4.37188C13.8207 4.35276 13.8926 4.33294 13.9648 4.31462V4.25587C14.0731 4.21773 14.1805 4.17879 14.2879 4.14055V4.0818H14.5036C14.6535 4.02872 14.9377 3.88134 15.2049 3.96668ZM14.8817 5.76312H14.666C14.5402 5.97533 14.4146 6.18833 14.2886 6.40124V6.57431H14.2345V6.69122H14.1805C14.1628 6.80723 14.1449 6.92235 14.1271 7.03836H14.073V7.21243H14.0188V7.38649H13.9648V7.56056H13.9115C13.893 7.71551 13.8752 7.86966 13.8575 8.02461C13.7567 8.32713 13.6265 8.6925 13.5877 9.06782H13.6418C13.6783 9.00986 13.7137 8.9528 13.7493 8.89385H13.8574C13.9294 8.79766 14.0011 8.70166 14.073 8.60477H14.1271V8.48776L14.3428 8.31469V8.19868C14.3782 8.17966 14.4146 8.15974 14.4502 8.14072C14.4683 8.06285 14.4859 7.98577 14.5046 7.9087C14.5402 7.88968 14.5766 7.86976 14.612 7.85064V7.73463H14.666V7.61862H14.7202V7.44455H14.7736V7.32943H14.8277V7.15537H14.8817C15.0101 6.80484 14.9866 6.35991 14.9891 5.87993C14.9188 5.83193 14.9256 5.8393 14.8817 5.76312Z" fill="#111111"/>
<path d="M29.0621 3.96684V4.0239H29.1696C29.1882 4.06284 29.2059 4.10177 29.2236 4.14061H29.2778V4.66192H29.2236C29.1882 4.855 29.1518 5.04789 29.1161 5.24197H29.0621V5.41604H29.0081L28.954 5.82114H28.9007V5.9952H28.8465C28.8098 6.18909 28.7743 6.38218 28.738 6.57437H28.6847V6.80729H28.6306V6.98136H28.5763V7.15542H28.5223C28.5046 7.29036 28.4869 7.42539 28.469 7.56052H28.415L28.3076 8.14058H28.2535C28.2171 8.33366 28.1815 8.52755 28.1452 8.71964H28.0919V8.95266H28.0378V9.12663H27.9838V9.3005H27.9297V9.53172H27.876C27.7321 10.072 27.5885 10.6139 27.4446 11.155H27.498C27.6012 10.9654 27.7628 10.8793 27.8218 10.633C27.8814 10.6197 28.1106 10.5196 28.1993 10.5759V10.633C28.3093 10.6597 29.0866 11.204 29.1163 11.2703V11.503C29.0478 11.5653 29.0598 11.6049 29.0082 11.6771H28.9541V11.7923C28.9008 11.8312 28.8466 11.8692 28.7921 11.9083V12.0251C28.7024 12.1022 28.6128 12.1793 28.5223 12.2562V12.3722C28.3972 12.4882 28.2713 12.6042 28.1452 12.7202L28.0377 12.8943H27.9296C27.8573 12.9905 27.7854 13.0873 27.7144 13.1836H27.6063C27.5886 13.2232 27.5707 13.2613 27.5521 13.3003H27.4446C27.427 13.3385 27.4083 13.3773 27.3906 13.4156L27.2292 13.4743V13.5314C27.1209 13.5705 27.0136 13.6084 26.9048 13.6483V13.7056H26.7434V13.7634C26.4923 13.8216 26.2403 13.8794 25.9888 13.9374V13.8794H25.8273V13.8216C25.6245 13.6268 25.6245 13.302 25.5035 13.0095H25.4502C25.396 12.8362 25.3419 12.6623 25.2877 12.4882C25.2267 12.5371 25.2798 12.4816 25.2344 12.5462C25.1457 12.6258 25.0982 12.7476 25.0183 12.8362L24.8561 12.9522V13.0682C24.7851 13.1263 24.7123 13.1836 24.6411 13.2415C24.3315 13.5754 24.1413 13.8786 23.5086 13.8794V13.8216C23.419 13.8026 23.3289 13.7824 23.2385 13.7634L23.131 13.5895H23.0227C22.9873 13.5314 22.951 13.4743 22.9153 13.4156C22.7715 13.2804 22.6278 13.1453 22.4841 13.0095V12.8943C22.4487 12.8752 22.4118 12.8552 22.3764 12.8362V12.7202C22.3401 12.7012 22.3044 12.6813 22.2681 12.6623V12.4882H22.214V12.3722H22.1607C22.011 11.9637 22.116 11.0399 22.214 10.6908C22.2326 10.4788 22.2503 10.2659 22.2681 10.0538C22.4841 9.26076 22.6999 8.4687 22.9154 7.67713H22.9694V7.56042H23.0227C23.0591 7.38635 23.0947 7.21328 23.131 7.03931H23.1852C23.2028 6.94242 23.2207 6.84523 23.2385 6.74834H23.2926V6.63322H23.3466V6.45915H23.4012C23.4189 6.38208 23.4366 6.305 23.4545 6.22713H23.5085V6.11112H23.5625V5.93705H23.6165V5.82104H23.6698V5.70582C23.7062 5.68601 23.7418 5.66689 23.7782 5.64707C23.8135 5.53205 23.8499 5.41604 23.8856 5.29903C23.9219 5.28091 23.9576 5.26109 23.9937 5.24197V5.12497C24.047 5.08683 24.1011 5.04789 24.1553 5.00995V4.89394C24.2628 4.79695 24.3713 4.69986 24.4788 4.60466C24.4973 4.56572 24.5151 4.52678 24.5328 4.48795H24.6409C24.6589 4.44901 24.6766 4.41087 24.6942 4.37194H24.8026V4.31468C24.8743 4.29486 24.9463 4.27504 25.018 4.25662V4.19787H25.18V4.14061H25.3956V4.08255H25.7727V4.0238H26.0425V4.08255H26.42V4.14061H26.5817V4.19787H26.7431V4.25662C26.8151 4.27494 26.8869 4.29476 26.9589 4.31468V4.37194C27.0312 4.39175 27.103 4.41087 27.1747 4.42999C27.1926 4.46893 27.2112 4.50786 27.2289 4.546L27.283 4.48795H27.3363V4.25662H27.3904V4.14061L27.5519 4.0239V3.96684H29.0621ZM26.0425 5.9961C25.9885 6.07318 25.9344 6.15025 25.8811 6.22733H25.827C25.8092 6.3044 25.7907 6.38228 25.7728 6.45935C25.7374 6.47847 25.7011 6.49829 25.6654 6.51741V6.63342H25.6114L25.5574 6.86455H25.5028V7.03861H25.4497L25.3955 7.27153H25.3415V7.4456H25.2881V7.56072H25.2341V7.73479H25.18V7.8508H25.1258C25.1081 7.96681 25.0905 8.08282 25.0727 8.19883H25.0184V8.31484H24.9644V8.48792H24.9104V8.66198H24.8571V8.83595H24.803V9.06798C24.6037 9.66028 24.3897 10.3106 24.3711 11.097H24.6412L24.9643 10.6909H25.0183V10.5749C25.0726 10.537 25.1257 10.4982 25.1799 10.4589V10.3439C25.2163 10.3239 25.2517 10.3041 25.288 10.2859C25.3057 10.2079 25.3237 10.1309 25.3414 10.0529L25.4497 9.99587V9.87906H25.5028V9.76385L25.6115 9.64783V9.53182C25.6471 9.5128 25.6835 9.49368 25.7189 9.47387C25.7376 9.39679 25.7553 9.31962 25.773 9.24184H25.8272C25.8449 9.16477 25.8626 9.08779 25.8812 9.00982H25.9346V8.83575H25.9886V8.72074H26.0426C26.0782 8.60373 26.1146 8.48772 26.15 8.3727H26.2042V8.19863H26.2583V8.08262H26.3123V7.90865H26.3656V7.79264H26.4197C26.4373 7.67663 26.4564 7.56062 26.4743 7.4455C26.6365 7.0427 26.8514 6.56879 26.9054 6.05336C26.8438 6.00447 26.8972 6.06093 26.8514 5.9961C26.546 5.97698 26.3386 5.93655 26.0425 5.9961Z" fill="#111111"/>
<path d="M48.4186 3.96684V4.0239H48.5268L48.5805 4.14061H48.6351V4.66192H48.5805C48.5458 4.855 48.5094 5.04789 48.4731 5.24197H48.4186V5.41604H48.365C48.3474 5.55018 48.3294 5.68601 48.3113 5.82114H48.2574V5.9952H48.2038C48.1673 6.18909 48.1313 6.38218 48.0963 6.57437H48.0418V6.80729H47.9872V6.98136H47.9335V7.15542H47.8799C47.8617 7.29036 47.8435 7.42539 47.8262 7.56052H47.7725C47.7361 7.7544 47.6998 7.94669 47.6651 8.14058H47.6106C47.5743 8.33366 47.5387 8.52755 47.5015 8.71964H47.4486V8.95266H47.3941V9.12663H47.3405V9.3005H47.2868V9.53172H47.2329C47.0894 10.072 46.9454 10.6139 46.8017 11.155H46.8554C46.9579 10.9654 47.1199 10.8793 47.1795 10.633C47.238 10.6197 47.4669 10.5196 47.556 10.5759V10.633C47.6667 10.6597 48.4433 11.204 48.473 11.2703V11.503C48.4053 11.5653 48.4169 11.6049 48.3649 11.6771H48.3112V11.7923L48.1491 11.9083V12.0251C48.0599 12.1022 47.9697 12.1793 47.8798 12.2562V12.3722C47.7543 12.4882 47.6287 12.6042 47.5014 12.7202C47.4667 12.7783 47.4304 12.8362 47.394 12.8943H47.2867C47.2154 12.9905 47.1427 13.0873 47.0717 13.1836H46.9626C46.9453 13.2232 46.928 13.2613 46.9091 13.3003H46.8016C46.7842 13.3385 46.7653 13.3773 46.7479 13.4156L46.5861 13.4743V13.5314C46.4787 13.5705 46.3695 13.6084 46.2622 13.6483V13.7056H46.1002V13.7634C45.8491 13.8216 45.5962 13.8794 45.3451 13.9374V13.8794H45.1841V13.8216C44.9809 13.6268 44.9809 13.302 44.8602 13.0095H44.8064C44.7519 12.8362 44.6982 12.6623 44.6445 12.4882C44.5833 12.5371 44.6363 12.4816 44.5909 12.5462C44.5024 12.6258 44.4545 12.7476 44.3752 12.8362C44.3206 12.8752 44.267 12.9133 44.2133 12.9522V13.0682C44.1422 13.1263 44.0696 13.1836 43.9986 13.2415C43.6879 13.5754 43.4978 13.8786 42.8651 13.8794V13.8216C42.7758 13.8026 42.6857 13.7824 42.5956 13.7634C42.5593 13.7056 42.523 13.6483 42.4883 13.5895H42.3809C42.3445 13.5314 42.3082 13.4743 42.2718 13.4156L41.8406 13.0095V12.8943C41.805 12.8752 41.7686 12.8552 41.7332 12.8362V12.7202C41.6968 12.7012 41.6612 12.6813 41.6249 12.6623V12.4882H41.5711V12.3722H41.5175C41.3679 11.9637 41.4721 11.0399 41.5711 10.6908C41.5895 10.4788 41.6075 10.2659 41.6249 10.0538C41.8406 9.26076 42.0561 8.4687 42.2718 7.67713H42.3263V7.56042H42.3809C42.4156 7.38635 42.452 7.21328 42.4883 7.03931H42.542C42.5593 6.94242 42.5776 6.84523 42.5956 6.74834H42.6493V6.63322H42.703V6.45915H42.7577C42.7758 6.38208 42.7931 6.305 42.8104 6.22713H42.8651V6.11112H42.9195V5.93705H42.9742V5.82104H43.0269V5.70582C43.0632 5.68601 43.0989 5.66689 43.1352 5.64707C43.1706 5.53205 43.207 5.41604 43.2426 5.29903C43.279 5.28091 43.3144 5.26109 43.3508 5.24197V5.12497C43.4054 5.08683 43.4583 5.04789 43.5128 5.00995V4.89394C43.6201 4.79695 43.7275 4.69986 43.8349 4.60466C43.8539 4.56572 43.8712 4.52678 43.8896 4.48795H43.9987C44.0161 4.44901 44.0333 4.41087 44.0514 4.37194H44.1597V4.31468C44.2315 4.29486 44.3035 4.27504 44.3753 4.25662V4.19787H44.5373V4.14061H44.752V4.08255H45.1305V4.0238H45.3997V4.08255H45.7773V4.14061H45.9383V4.19787H46.1004V4.25662C46.1723 4.27494 46.244 4.29476 46.3161 4.31468V4.37194C46.3879 4.39175 46.4598 4.41087 46.5317 4.42999C46.5499 4.46893 46.5679 4.50786 46.5863 4.546L46.6407 4.48795H46.6936V4.25662H46.7481V4.14061L46.9093 4.0239V3.96684H48.4186ZM45.3998 5.9961C45.3453 6.07318 45.2917 6.15025 45.238 6.22733H45.1843C45.1669 6.3044 45.148 6.38228 45.1306 6.45935C45.0943 6.47847 45.0579 6.49829 45.0233 6.51741V6.63342H44.9686L44.9142 6.86455H44.8604V7.03861H44.8066C44.7893 7.11649 44.7704 7.19356 44.7521 7.27153H44.6984V7.4456H44.6447V7.56072H44.5911V7.73479H44.5374V7.8508H44.4828C44.4646 7.96681 44.4473 8.08282 44.43 8.19883H44.3754V8.31484H44.3208V8.48792H44.2672V8.66198H44.2135V8.83595H44.1598V9.06798C43.9607 9.66028 43.7467 10.3106 43.7276 11.097H43.9987C44.106 10.962 44.2134 10.8261 44.3207 10.6909H44.3753V10.5749C44.4299 10.537 44.4827 10.4982 44.5373 10.4589V10.3439C44.5719 10.3239 44.6083 10.3041 44.6446 10.2859C44.663 10.2079 44.6809 10.1309 44.6983 10.0529C44.7347 10.0341 44.7703 10.0149 44.8065 9.99587V9.87906H44.8603V9.76385L44.9685 9.64783V9.53182C45.0041 9.5128 45.0405 9.49368 45.0759 9.47387C45.0942 9.39679 45.1122 9.31962 45.1305 9.24184H45.1842C45.2016 9.16477 45.2195 9.08779 45.2379 9.00982H45.2916V8.83575H45.3452V8.72074H45.3997C45.4353 8.60373 45.4717 8.48772 45.5072 8.3727H45.5618V8.19863H45.6155V8.08262H45.6691V7.90865H45.7236V7.79264H45.7773L45.831 7.4455C45.9937 7.0427 46.2087 6.56879 46.2624 6.05336C46.2012 6.00447 46.2542 6.06093 46.2087 5.9961C45.9038 5.97698 45.6955 5.93655 45.3998 5.9961Z" fill="#111111"/>
<path d="M31.1114 11.7352C31.8286 11.7219 31.9488 11.8172 32.2972 12.1992C32.3515 12.2372 32.4056 12.2763 32.4589 12.3143C32.5216 12.4121 32.4613 12.4452 32.567 12.5455C32.5943 12.9349 32.6467 13.2903 32.4589 13.5897C32.3869 13.6484 32.3159 13.7057 32.2431 13.7635C32.1407 13.8738 32.1482 13.9482 31.9743 13.9955C31.8258 14.1638 31.0188 14.2341 30.8411 14.0535C30.6001 13.9981 30.5478 13.8638 30.4107 13.7057C30.3744 13.6866 30.338 13.6665 30.3026 13.6484V13.5315H30.2484C30.1866 13.4139 30.2484 13.4022 30.1409 13.3004C30.1281 12.8752 30.146 12.5057 30.3026 12.2563C30.3567 12.2173 30.4107 12.1794 30.464 12.1403C30.5655 12.0302 30.5595 11.9555 30.7338 11.9084V11.8512C30.8597 11.8313 30.9848 11.8122 31.1112 11.7924L31.1114 11.7352Z" fill="#111111"/>
<path d="M67.5065 4.19797C67.5428 4.34047 67.6327 4.47142 67.6675 4.60406C67.6327 4.87502 67.5964 5.14518 67.5601 5.41614H67.5065C67.4891 5.57009 67.471 5.72504 67.4527 5.87919H67.399V6.05326H67.3453V6.28528H67.2907V6.51731H67.2362V6.74933H67.1833C67.1645 6.88446 67.1472 7.0193 67.1289 7.15443H67.0744C67.0571 7.30938 67.0395 7.46432 67.0206 7.61848C66.9131 7.95645 66.805 8.38236 66.6976 8.71964C66.6793 8.87459 66.6621 9.02954 66.643 9.18369H66.5893V9.35776H66.5356V9.58978H66.482V9.82081H66.4275V10.0538H66.3737C66.3555 10.1889 66.3374 10.3238 66.3201 10.4598H66.2664V10.6908H66.2117C66.1937 10.8451 66.1764 11.0007 66.1588 11.1549H66.1044V11.329H66.0499V11.561H65.9963V11.7922H65.9426V12.024H65.8887V12.2561H65.8349C65.7986 12.4683 65.7625 12.6813 65.7276 12.8934C65.6565 13.1153 65.5592 13.4013 65.5111 13.6482C65.1014 13.8901 64.1341 13.8768 63.5696 13.7633C63.5598 13.1535 63.7458 12.701 63.8937 12.256C63.9118 12.102 63.93 11.947 63.9474 11.7921H64.001V11.6181H64.0555C64.0911 11.4059 64.1275 11.1929 64.1628 10.9808H64.2176V10.7488H64.2713V10.5168H64.3249V10.3427H64.3786C64.4149 10.1307 64.4504 9.9178 64.4867 9.70569H64.5414C64.5588 9.55064 64.5761 9.3958 64.5941 9.24164H64.6487C64.6669 9.10651 64.6842 8.97059 64.7032 8.83655H64.757C64.8603 8.53821 64.8552 8.24743 64.8643 7.8504H64.757C64.7032 7.92748 64.6487 8.00465 64.5941 8.08242H64.5414V8.19843C64.5051 8.21755 64.4687 8.23747 64.4323 8.25649C64.4149 8.33357 64.3975 8.41144 64.3786 8.48851C64.343 8.50753 64.3066 8.52645 64.2713 8.54557C64.2539 8.62355 64.2349 8.70072 64.2176 8.7776C64.1812 8.79741 64.1449 8.81653 64.1101 8.83655C64.0912 8.91343 64.0738 8.9905 64.0555 9.06758C64.0192 9.08759 63.9837 9.10651 63.9474 9.12563V9.24164H63.8937V9.35766H63.84V9.47367L63.7325 9.58968V9.70569C63.6953 9.72471 63.6606 9.74383 63.6242 9.76365V9.87966L63.5169 9.99487V10.1117H63.4622V10.2277H63.4078V10.3427H63.3541V10.4597H63.3004V10.5747H63.2468V10.6907L63.1384 10.8068V10.9228C63.103 10.9419 63.0666 10.9618 63.031 10.9808C63.0129 11.0579 62.9947 11.1358 62.9765 11.2129L62.8692 11.3289V11.4441H62.8155V11.5609H62.7609V11.6769H62.7072V11.7921H62.6535V11.9089H62.5998V12.0239H62.5453V12.1399H62.4924V12.256L62.3833 12.372V12.488C62.3486 12.5071 62.3122 12.527 62.2759 12.546V12.6621H62.2223V12.7781H62.1686V12.8933H62.1139V13.0101L62.0065 13.1261V13.2413H61.952C61.9347 13.3001 61.9174 13.3581 61.8974 13.4154C61.8627 13.4352 61.8263 13.4543 61.79 13.4741V13.5894C61.7363 13.6092 61.6827 13.6283 61.629 13.6481V13.7054C61.5629 13.7607 61.5249 13.7492 61.4679 13.8214H60.1734C60.0518 13.5975 60.0089 13.639 60.0113 13.2413C60.1213 13.1053 60.057 12.9636 60.1197 12.7781H60.1734V12.604H60.227V12.372H60.2807C60.2997 12.217 60.3171 12.063 60.3344 11.9089H60.3891V11.7349H60.4436C60.4782 11.5219 60.5145 11.3097 60.5509 11.0968H60.6046C60.6401 10.8648 60.6766 10.6328 60.7119 10.4018C61.0036 9.53083 61.1772 8.49011 61.4679 7.61828C61.5026 7.38695 61.5389 7.15423 61.5753 6.9231H61.629V6.74903H61.6827C61.719 6.53683 61.7554 6.32392 61.79 6.11172H61.8447V5.8789H61.8974C61.9174 5.72474 61.9347 5.5698 61.952 5.41584H62.0065C62.0248 5.27982 62.0421 5.14488 62.0612 5.00886C62.1305 4.78858 62.2281 4.50169 62.2759 4.25573C62.3535 4.21091 62.4924 4.0959 62.5453 4.0244H64.11C64.195 4.18273 64.257 4.1661 64.2712 4.42969C64.0374 5.1647 63.8035 5.89871 63.5696 6.63302H63.6242V6.57497C63.7739 6.43645 63.8341 6.2335 63.9474 6.05286C63.9837 6.03384 64.0192 6.01472 64.0555 5.99481V5.8788C64.1101 5.84066 64.1628 5.80172 64.2176 5.76378V5.64677C64.2539 5.62775 64.2885 5.60784 64.3249 5.58951V5.4735C64.3786 5.43457 64.4323 5.39563 64.4867 5.35669V5.24168C64.5414 5.20254 64.5941 5.1646 64.6487 5.12566V5.00866C64.6842 4.99053 64.7208 4.97072 64.757 4.9516V4.83559C64.8108 4.79665 64.8643 4.75771 64.9182 4.71957V4.60356C64.9543 4.58444 64.9909 4.56542 65.0255 4.54551C65.08 4.46843 65.1344 4.39135 65.1873 4.31418H65.2958C65.313 4.27524 65.3311 4.2373 65.3494 4.19747H65.4568V4.14021H65.5659V4.08146C65.8278 3.96057 66.7051 3.98447 67.0744 4.0242C67.2668 4.04471 67.3388 4.15236 67.5065 4.19797Z" fill="#111111"/>
</svg>
