<svg width="80" height="18" viewBox="0 0 80 18" fill="none" xmlns="http://www.w3.org/2000/svg">
<path d="M60.9964 0.861395C61.4946 0.851753 62.9703 0.752188 63.1978 0.996742H63.2612V1.47052C62.045 6.54307 60.8287 11.6164 59.6123 16.6879C59.5236 16.741 59.3597 16.8753 59.2979 16.9586H57.914C57.7136 16.9575 57.4542 16.9923 57.3471 16.8908C57.0504 16.8184 57.0195 16.6221 57.033 16.2143C57.1604 16.0575 57.0888 15.8941 57.1593 15.6729H57.2219V15.403C57.4647 14.6809 57.6161 13.7741 57.8504 13.0354C57.8927 12.7659 57.9352 12.4943 57.9776 12.2245C58.4153 10.9175 58.6272 9.34946 59.0457 8.03084C59.1304 7.58031 59.2134 7.12884 59.298 6.67842C59.7589 4.80772 60.2205 2.93505 60.6822 1.06447C60.792 1.0151 60.923 0.954105 60.9964 0.861395Z" fill="#111111"/>
<path d="M45.3956 1.4028C46.0587 1.39607 46.7026 1.38247 47.1576 1.60588V1.67257H47.2828C47.304 1.71892 47.3252 1.7633 47.3464 1.80873H47.4716C47.6182 1.98857 47.7657 2.16842 47.9111 2.34931C47.9535 2.37138 47.9959 2.39473 48.0384 2.41785C48.5338 3.20565 48.8327 4.87338 48.6043 6.20467C48.4847 6.27321 48.3461 6.42401 48.2264 6.47536C48.0587 6.49755 47.891 6.52079 47.7221 6.54309V6.61082H47.4716C46.9964 6.78184 46.7217 6.96354 46.2139 6.74501C46.1917 6.67844 46.1715 6.61082 46.1512 6.54309H46.0877V5.86636H46.0239V5.39351H45.9624V5.05427H45.8986V4.78462H45.836C45.8158 4.64928 45.7945 4.51393 45.7734 4.37858C45.6684 4.19874 45.5633 4.01797 45.4591 3.83812C44.9638 4.08849 44.9118 4.50998 44.6408 4.9877C44.5996 5.01001 44.5571 5.03313 44.5147 5.05427V5.25735H44.4522C44.4319 5.3482 44.4106 5.43917 44.3895 5.52886H44.3257V5.73194H44.2639C44.2429 5.91178 44.2218 6.09255 44.2005 6.27251H44.1369C44.0318 6.65427 44.187 7.10772 44.2005 7.42302C44.3508 7.52235 44.3026 7.62296 44.3895 7.69255H44.5147V7.76029C44.6408 7.80571 44.7673 7.85021 44.8925 7.89563V7.96336C45.0389 7.98648 45.1864 8.00879 45.3321 8.03191V8.09871C45.4793 8.12183 45.6271 8.14321 45.7735 8.16644V8.23418H45.9626V8.30191C46.0878 8.3464 46.214 8.39183 46.3392 8.43725V8.50499H46.4656C46.5485 8.61814 46.6333 8.73118 46.7161 8.84225C46.7585 8.8656 46.8009 8.88767 46.8434 8.91103V9.04533H46.9061C46.9476 9.18068 46.9898 9.31707 47.0314 9.45137H47.094V9.65445H47.1578C47.2415 9.90969 47.385 11.3028 47.283 11.6836H47.2193V12.0897H47.1578C47.1364 12.2696 47.1154 12.4503 47.094 12.6301H47.0314C46.9898 12.833 46.9476 13.0359 46.9061 13.239H46.8434V13.3743H46.7797V13.5773H46.7161C46.6747 13.7127 46.6333 13.848 46.5909 13.9833H46.5273C46.507 14.0733 46.4867 14.1633 46.4656 14.2532C46.4232 14.2764 46.3816 14.2995 46.3392 14.3218C46.319 14.4117 46.298 14.5016 46.2766 14.5925C46.214 14.637 46.1514 14.6824 46.0878 14.7269V14.862C46.0463 14.8854 46.0038 14.9077 45.9626 14.9297V15.0651C45.8563 15.155 45.7524 15.2449 45.6474 15.3358V15.4711C45.4999 15.6065 45.3533 15.7418 45.2067 15.8772C45.1643 15.944 45.1237 16.0125 45.0813 16.0801H44.9561C44.8925 16.17 44.8288 16.2601 44.7673 16.3499H44.6408C44.5996 16.4176 44.5571 16.4862 44.5147 16.553H44.3895C44.3681 16.5984 44.3471 16.6427 44.3257 16.6883C44.2429 16.7114 44.159 16.7337 44.0751 16.7558V16.8237H43.9488V16.8912C43.8234 16.9357 43.6973 16.9821 43.5721 17.0265V17.0941C43.4246 17.1163 43.2771 17.1386 43.1306 17.1619V17.2295H42.8165V17.2972C42.4057 17.4228 41.813 17.2517 41.5585 17.1619C41.4113 17.1386 41.2651 17.1163 41.118 17.0941V17.0265H40.9928V16.959H40.8667C40.8459 16.9144 40.8251 16.8691 40.8036 16.8237C40.7196 16.8015 40.6358 16.7792 40.5519 16.7558C40.5104 16.6883 40.4679 16.6205 40.4266 16.553C40.3216 16.463 40.2161 16.373 40.1114 16.2832V16.1469C40.0699 16.1247 40.0274 16.1023 39.9861 16.0801V15.944L39.8597 15.8094V15.6741H39.7976V15.5387H39.7345V15.4034H39.6714C39.6299 15.1105 39.5874 14.8166 39.5461 14.5247H39.4828C39.4621 14.1187 39.4406 13.7127 39.4197 13.3077C39.4828 13.0816 39.5461 12.8562 39.6083 12.63C39.7307 12.5612 39.8646 12.4173 39.9861 12.3602H40.1745V12.2926H40.3635V12.2249H40.5519V12.1573H40.7414V12.0895H40.8667V12.0219H41.0549V11.9542C41.3563 11.8257 41.6463 11.8247 42.0618 11.8188C42.2735 12.2578 42.1919 13.1936 42.1879 13.848C42.3017 13.991 42.189 14.2328 42.2497 14.4562C42.3132 14.659 42.377 14.862 42.4385 15.0651C42.5406 15.1056 42.5891 15.125 42.7536 15.1327C42.8646 14.9973 42.8916 15.0768 43.0053 14.9973C43.0267 14.9519 43.0477 14.9077 43.0688 14.862H43.1944C43.2368 14.7954 43.2772 14.7269 43.3196 14.659H43.3832V14.5247C43.466 14.4562 43.55 14.3894 43.6337 14.3218V14.1864C43.6761 14.1633 43.7185 14.141 43.761 14.1179V13.9833H43.8236C43.8651 13.848 43.9076 13.7127 43.9489 13.5773H44.0118C44.0329 13.442 44.0539 13.3078 44.0752 13.1713H44.137C44.159 12.9462 44.1791 12.7198 44.2006 12.4957H44.264C44.3472 12.1796 44.2422 11.1993 44.137 11.0746C44.0118 10.5748 43.5056 10.424 43.0688 10.2636H42.8165V10.196C42.6912 10.1738 42.5658 10.1505 42.4385 10.1282V10.0606C42.3547 10.0375 42.2708 10.016 42.1879 9.99288V9.92607H42.0618C42.0415 9.87983 42.0202 9.83522 41.9991 9.78991H41.8738C41.8314 9.72311 41.789 9.65457 41.7465 9.58683C41.6848 9.56453 41.6213 9.54141 41.5584 9.52026V9.38387C41.4953 9.33845 41.4331 9.29395 41.3696 9.24852V9.11422C41.3272 9.09087 41.2859 9.0688 41.2432 9.04545V8.84237H41.1813V8.70806H41.1179V8.43737C40.9445 7.84963 41.0993 7.00269 41.2432 6.54356V6.27286H41.3066V6.06978H41.3696V5.8667H41.4331V5.66363H41.4953V5.46055H41.5584C41.5793 5.37063 41.601 5.2807 41.6213 5.1909H41.6848V4.98782H41.7465V4.85247H41.8101V4.71712C41.8525 4.69482 41.8941 4.67147 41.9365 4.64939C41.9777 4.51405 42.0202 4.3787 42.0618 4.24428C42.103 4.22116 42.1455 4.19886 42.1879 4.17574V4.04132C42.2294 4.01808 42.2708 3.99589 42.3131 3.97277V3.83836C42.3547 3.81524 42.3971 3.79293 42.4385 3.76981C42.4606 3.70301 42.4809 3.63539 42.5022 3.56673C42.5658 3.52224 42.6283 3.47681 42.6912 3.43231V3.29697C42.88 3.11619 43.0688 2.93647 43.257 2.7557C43.362 2.62035 43.466 2.48512 43.5722 2.34977H43.6974C43.7398 2.28204 43.7813 2.21524 43.8236 2.14669H43.9489C43.9691 2.1022 43.9913 2.05677 44.0118 2.01227H44.137C44.159 1.96685 44.1791 1.92142 44.2006 1.876H44.3258V1.80919C44.4106 1.78608 44.4935 1.76377 44.5775 1.74146V1.67292H44.7674V1.60623H44.8927V1.5385C45.089 1.45497 45.2509 1.5428 45.3956 1.4028Z" fill="#111111"/>
<path d="M6.39487 1.67334C6.4383 1.86678 6.50722 1.84273 6.52019 1.87642C6.56259 2.61984 6.60405 3.36419 6.64644 4.10866C6.73227 4.43733 6.6117 5.02217 6.70957 5.39336C6.80119 5.74828 6.77166 6.35054 6.77166 6.81258V9.38429H6.83478V9.2479C6.95339 9.13672 7.07177 8.92121 7.14937 8.77529V8.63994C7.19084 8.61682 7.23335 8.59545 7.27482 8.57221C7.31767 8.43686 7.35914 8.30152 7.40153 8.16617C7.443 8.14398 7.48539 8.12075 7.52686 8.09937C7.54759 8.00852 7.56925 7.91778 7.58998 7.82774C7.63145 7.80462 7.67384 7.78325 7.71531 7.76001C7.7577 7.62467 7.79917 7.49025 7.84156 7.35397C7.88292 7.33178 7.92542 7.30948 7.96689 7.2874C7.98867 7.19748 8.00928 7.10558 8.03002 7.01555C8.07241 6.9944 8.11388 6.97128 8.15627 6.94898C8.19762 6.81247 8.24013 6.67828 8.2816 6.54293C8.32445 6.51982 8.36604 6.49844 8.40727 6.4752C8.44967 6.33986 8.49206 6.20532 8.53364 6.06916C8.57511 6.04686 8.6175 6.02374 8.65897 6.00236V5.8662H8.72198V5.73085C8.76437 5.70948 8.80584 5.68636 8.84823 5.66405C8.88958 5.52789 8.93209 5.39336 8.97367 5.25801C9.01607 5.23489 9.05742 5.21374 9.09981 5.19051V5.05516H9.16201V4.91877C9.2044 4.89762 9.24587 4.87451 9.28826 4.8522C9.32962 4.71685 9.37212 4.5815 9.41405 4.44616C9.45645 4.42304 9.49791 4.40166 9.54031 4.37843C9.58166 4.24308 9.62417 4.10866 9.66552 3.97331C9.70791 3.95019 9.74949 3.92708 9.79189 3.90558C9.81262 3.81566 9.83347 3.72388 9.85409 3.63396C9.89648 3.61258 9.93783 3.58946 9.98022 3.56716C10.0218 3.43088 10.0642 3.29646 10.1056 3.16112C10.1479 3.138 10.1895 3.11674 10.2319 3.09362C10.2525 3.00369 10.2734 2.91377 10.2949 2.82385C10.3365 2.80073 10.3789 2.77843 10.4203 2.75519C10.4631 2.61984 10.5047 2.48461 10.5471 2.34926C10.5887 2.32696 10.63 2.30465 10.6724 2.28246V2.14619H10.7354V2.01177C10.7769 1.98865 10.8194 1.96634 10.8608 1.94322C10.9774 1.76919 10.7929 1.81949 11.0493 1.74014C11.1887 1.57378 11.445 1.60584 11.7423 1.60584H13.4397C13.5166 1.7499 13.5817 1.75281 13.6296 1.94322H13.6916C13.6709 2.124 13.6503 2.30465 13.6296 2.48461H13.5659V2.75519H13.5028V3.02577C13.2927 3.68136 13.1465 4.46347 12.9376 5.12173C12.9158 5.30355 12.8952 5.48328 12.8744 5.66393C12.4676 6.93155 12.27 8.38354 11.8677 9.65371C11.7839 10.1042 11.6999 10.5558 11.616 11.0061C11.3742 11.7295 11.2199 12.6361 10.9871 13.3737C10.9653 13.5545 10.9447 13.7343 10.9241 13.9151C10.6547 14.7638 10.4069 15.7675 10.232 16.6878C10.1424 16.7409 9.97953 16.8752 9.91733 16.9585C9.19884 16.9632 8.3314 17.0125 7.71554 16.8907C7.69469 16.8232 7.67408 16.7553 7.65334 16.6878H7.59022V16.2827H7.65334V16.0111H7.71554V15.7413H7.77867V15.4706H7.84168C7.86241 15.3122 7.88303 15.1555 7.90469 14.9968C8.13658 14.3347 8.25797 13.5034 8.47051 12.8323C8.49217 12.6526 8.51291 12.4728 8.53364 12.2921H8.59665C8.76437 11.5253 8.93209 10.7589 9.0997 9.99214H9.03668V10.0599C8.91333 10.1807 8.98456 10.2078 8.91043 10.3306C8.86896 10.3528 8.82657 10.376 8.7851 10.3982V10.5335H8.72198V10.6689C8.68063 10.6912 8.63812 10.7135 8.59665 10.7354V10.872H8.53364V11.0061C8.49206 11.0295 8.44967 11.0516 8.40727 11.0749C8.38665 11.1648 8.36604 11.2546 8.34519 11.3446C8.30221 11.3677 8.26086 11.39 8.21847 11.4122C8.19774 11.5021 8.177 11.593 8.15627 11.6829C8.11388 11.7051 8.07241 11.7283 8.03002 11.7506C8.00928 11.8404 7.98867 11.9304 7.96689 12.0213H7.90469C7.88303 12.0889 7.86241 12.1566 7.84168 12.2243C7.79929 12.2465 7.75782 12.2697 7.71543 12.292V12.4262C7.65323 12.4726 7.5901 12.5171 7.52697 12.5627V12.698C7.46489 12.7202 7.40165 12.7423 7.33864 12.7656C7.29705 12.8322 7.2542 12.8998 7.21285 12.9687C7.07513 13.0624 6.42544 13.1899 6.14305 13.1029V13.0352H5.57665V12.9687H5.13616V12.8998C5.02681 12.8565 4.97284 12.872 4.88469 12.8322C4.84705 12.7551 4.77616 12.7288 4.75937 12.698V12.5627H4.69624V12.292H4.63311C4.65477 12.1111 4.67551 11.9304 4.69624 11.7506V10.1274C4.69624 9.80555 4.78693 9.09885 4.63311 8.90924C4.02501 11.5021 3.41726 14.0958 2.80904 16.6878C2.71939 16.7409 2.55654 16.8752 2.49434 16.9585H0.418688C0.342588 16.8143 0.276566 16.8114 0.230235 16.62H0.166992C0.18761 16.4402 0.209385 16.2595 0.230003 16.0796H0.29313V15.808C0.531273 15.0725 0.67826 14.1636 0.922079 13.4413V13.1718C1.08157 12.675 1.20308 12.0436 1.36211 11.5476C1.38273 11.3678 1.40451 11.187 1.42512 11.0063C1.87628 9.59992 2.09021 7.93986 2.55723 6.54305C2.57785 6.36228 2.59962 6.18243 2.62024 6.00248C2.75043 5.59469 2.868 5.05702 2.99715 4.64924C3.01927 4.46939 3.04 4.28862 3.06062 4.10878C3.21444 3.62443 3.34741 3.0339 3.50066 2.55234V2.28269C3.5705 2.06428 3.63895 1.85353 3.81536 1.74038C3.96571 1.57796 4.26651 1.60608 4.57056 1.60608C5.17171 1.6048 5.89217 1.56994 6.39487 1.67334Z" fill="#111111"/>
<path d="M25.3923 5.52778H26.651C26.6716 5.59551 26.6923 5.66394 26.7132 5.73085H26.7762C26.7556 5.88839 26.7347 6.04697 26.7132 6.20463H26.651V6.47532H26.588V6.6784H26.5243V6.88148H26.4621V7.15217H26.399C26.2973 7.37721 26.338 7.49037 26.0843 7.55821C25.9109 7.72725 25.1914 7.63164 24.8892 7.62478C24.1765 10.6449 23.4633 13.6678 22.7506 16.688C22.6609 16.7411 22.498 16.8765 22.4358 16.9587C21.9442 16.9693 20.5231 17.0659 20.2972 16.8234C20.2257 16.746 20.2722 16.8234 20.235 16.688H20.1715V16.1476H20.235V15.876C20.3324 15.5704 20.4519 15.1634 20.5487 14.8628C20.5704 14.681 20.591 14.5012 20.6119 14.3214C20.9337 13.3178 21.112 12.1375 21.4301 11.1429V10.8722H21.4923V10.6003H21.5553V10.3308H21.6184V10.0601C21.7201 9.74201 21.8316 9.2974 21.9322 8.97733V8.70663C22.0397 8.37018 22.1659 8.07834 22.1836 7.6249C21.8444 7.62978 21.4931 7.60864 21.24 7.55833C21.2155 7.30193 21.1543 7.22571 21.24 6.94921H21.3035V6.67852H21.3668C21.3875 6.52005 21.4081 6.36333 21.4298 6.20474H21.492V5.93405C21.5016 5.91093 21.7324 5.53475 21.7434 5.52801H22.7502C22.7551 5.21282 22.8658 5.01369 22.9385 4.7847V4.51401C23.0412 4.19475 23.1517 3.75014 23.2533 3.43216V3.16147H23.3163V2.88984H23.3785C23.4791 2.66655 23.3708 2.62984 23.6306 2.55246C23.8909 2.26632 25.6451 2.41328 25.9588 2.55246C25.9992 2.66852 26.0181 2.76425 26.021 2.95862C25.8937 3.11232 25.9645 3.28136 25.8957 3.49896H25.8326V3.77059C25.666 4.29989 25.4982 4.94782 25.3923 5.52778Z" fill="#111111"/>
<path d="M67.9792 5.32577V5.39234H68.2923V5.46007H68.4813V5.52862C68.6086 5.57311 68.7339 5.61854 68.8591 5.66315V5.7317H68.9845V5.7985C69.0983 5.8962 69.136 5.9522 69.2996 6.00158C69.3469 6.17654 69.397 6.22092 69.4886 6.34H69.5513V6.47535C69.5937 6.49754 69.6361 6.52078 69.6765 6.54308V6.67843H69.7401C69.7614 6.76812 69.7825 6.85804 69.8038 6.94796H69.8665V7.15104H69.9291V7.4229H69.9918V7.96312H70.0544C70.1449 8.31119 70.0602 9.86867 69.9918 10.1276V10.6014C69.8665 11.1871 69.7401 11.7731 69.6148 12.3589H69.5513V12.5618H69.4886V12.6983H69.4248V12.9001H69.3623V13.1032H69.2996C69.2572 13.2397 69.2159 13.3739 69.1744 13.5092H69.1117V13.6436H69.0482V13.8467C69.0067 13.8698 68.9642 13.893 68.9229 13.9153V14.0497H68.8591V14.186L68.7339 14.3213V14.4557C68.6915 14.4788 68.6491 14.5011 68.6086 14.5243C68.5873 14.6142 68.5662 14.7042 68.5449 14.7939H68.4813C68.461 14.8615 68.4409 14.9304 68.4196 14.9969C68.3772 15.0202 68.3358 15.0415 68.2923 15.0646V15.2C68.2518 15.2233 68.2094 15.2445 68.167 15.2676L68.1044 15.4706C68.0206 15.5373 67.9367 15.606 67.8529 15.6736V15.809C67.7277 15.9221 67.6013 16.0334 67.476 16.1465C67.4539 16.1919 67.4336 16.2364 67.4134 16.2818H67.2861C67.2243 16.3725 67.1608 16.4626 67.0973 16.5525H66.9718L66.9091 16.6878H66.7839V16.7553C66.6577 16.801 66.5325 16.8451 66.4061 16.8907V16.9585C66.2808 16.9805 66.1544 17.004 66.0291 17.026V17.0937H64.7069V17.026H64.5188V16.9585H64.3309V16.8908H64.2036V16.8242H64.0783C64.0572 16.7778 64.0359 16.7323 64.0148 16.688H63.8895C63.7643 16.5304 63.6387 16.3727 63.5117 16.2151L63.3236 16.0798C62.7811 15.2513 62.4495 13.1747 62.8196 11.8184V11.4123H62.8831V11.074H62.9469V10.8044H63.0084V10.6014H63.0721V10.3307H63.1357V10.1276H63.1982V9.92467H63.2609V9.72159H63.3236V9.51851H63.3865V9.38317H63.449V9.18009H63.5117V9.04474H63.5753V8.84282H63.6387C63.6592 8.7529 63.6795 8.66205 63.7005 8.57213H63.7643V8.36905H63.8268C63.8682 8.2337 63.9107 8.09835 63.9522 7.96301H64.0148V7.82766H64.0783L64.1421 7.55697H64.2036C64.2257 7.48923 64.246 7.42278 64.2673 7.35389C64.3097 7.3317 64.3511 7.30939 64.3935 7.28616V7.15081C64.4351 7.12966 64.4776 7.10654 64.5188 7.08308V6.94773C64.644 6.83573 64.7705 6.72351 64.8957 6.61047C64.9171 6.54273 64.9381 6.47512 64.9593 6.40739H65.0847L65.3373 6.06896H65.4626C65.505 6.00123 65.5463 5.93443 65.5887 5.86588L65.9657 5.73135V5.6628C66.0495 5.6405 66.1333 5.61831 66.2173 5.59507V5.52862C66.4418 5.42324 67.5994 5.20483 67.9792 5.32577ZM67.0357 7.82766C66.8883 7.96301 66.7428 8.09835 66.5953 8.2337V8.36905C66.5529 8.39136 66.5113 8.41355 66.4689 8.43678V8.57213C66.4276 8.59443 66.3851 8.61662 66.3437 8.63986C66.3225 8.72978 66.3013 8.81947 66.2801 8.90951H66.2164C66.1961 9.00036 66.1758 9.09028 66.1546 9.18125H66.0911V9.38317H66.0284V9.51851H65.9658V9.72159H65.9032V9.85694H65.8405C65.8192 9.99229 65.7981 10.1276 65.7768 10.263H65.7153V10.3975H65.6515C65.4839 11.0517 65.316 11.7053 65.1484 12.3599V12.8336H65.0848C64.9471 13.3594 65.2352 14.4713 65.4627 14.5912H65.8405C65.9475 14.4558 65.986 14.5351 66.0911 14.4568C66.1758 14.3436 66.2597 14.2306 66.3437 14.1183C66.3851 14.0952 66.4276 14.0729 66.4689 14.0507V13.9154C66.5113 13.8923 66.5529 13.87 66.5953 13.8476C66.6155 13.7578 66.6366 13.6678 66.6579 13.577H66.7206V13.4416H66.7832C66.8256 13.3063 66.868 13.1709 66.9105 13.0356H66.972V12.8338H67.0357L67.0984 12.5631H67.1611C67.1822 12.4277 67.2035 12.2912 67.2237 12.157H67.2872V11.9539H67.3499V11.751H67.4127V11.5479H67.4751V11.3449H67.5389V11.0065H67.6024V10.737H67.6641V10.3309H67.7279V9.9249H67.7905V9.11282C67.7905 9.11282 67.882 9.0588 67.8532 8.90974H67.7905V8.30178H67.7279L67.6641 7.96336C67.5821 7.90829 67.5898 7.91596 67.5389 7.82801L67.0357 7.82766Z" fill="#111111"/>
<path d="M17.9061 5.46105V5.52762H18.2208V5.59535H18.4091V5.66389C18.535 5.70839 18.6612 5.75382 18.7865 5.79843V5.86697H18.9126C18.9541 5.93378 18.9966 6.00151 19.0381 6.07005H19.1642L19.2895 6.20459V6.33993L19.4781 6.47528V6.61063C19.5205 6.63282 19.5619 6.65605 19.6047 6.67836C19.6462 6.88144 19.6887 7.0844 19.73 7.28632C19.7869 7.4808 19.8742 8.07226 19.7933 8.3691H19.73V8.70636H19.6678V8.90944H19.6048C19.5842 9.06814 19.562 9.22556 19.5414 9.38321H19.4783C19.4574 9.47313 19.4368 9.56398 19.4161 9.65391H19.3529V9.85698H19.2898V9.99233H19.2268V10.1277L19.1014 10.1954L19.0384 10.4661C18.9968 10.4883 18.9545 10.5106 18.913 10.5337V10.6691C18.8708 10.6914 18.8292 10.7137 18.7868 10.7368V10.8721C18.7456 10.8943 18.7029 10.9164 18.6615 10.9398V11.0741C18.5985 11.1195 18.5354 11.165 18.4725 11.2094V11.3448C18.3464 11.4578 18.2211 11.5708 18.0947 11.6831V11.8184C17.9269 11.976 17.7592 12.1345 17.5916 12.291C17.5504 12.3598 17.5079 12.4275 17.4663 12.4942H17.3395C17.2557 12.6074 17.1717 12.7204 17.0881 12.8336H16.9628C16.9419 12.8778 16.9204 12.9234 16.8995 12.9689H16.7742C16.7318 13.0354 16.6905 13.1031 16.6481 13.1707C16.5641 13.193 16.4804 13.2163 16.3959 13.2385C16.3753 13.283 16.3544 13.3293 16.3337 13.3738H16.2076C15.9826 13.5102 15.8288 13.6473 15.5161 13.712C15.5099 14.0843 15.4717 14.1675 15.5161 14.4565C15.5969 14.4962 15.6502 14.5221 15.7044 14.5909C16.1585 14.4824 16.3744 14.1472 16.6482 13.8473C16.7112 13.8019 16.7743 13.7575 16.8365 13.712V13.5766C16.8703 13.5275 17.2651 13.2131 17.3396 13.2383V13.306L17.7181 13.4413C17.7387 13.4859 17.7593 13.5312 17.7811 13.5766C17.8639 13.599 17.9488 13.6222 18.0316 13.6444C18.0534 13.6889 18.074 13.7343 18.0947 13.7788C18.2624 13.8696 18.4302 13.9604 18.5984 14.0504L18.6614 14.3879H18.5984C18.5164 14.8006 18.2041 15.0142 17.9693 15.2674C17.7386 15.5381 17.5079 15.8088 17.2773 16.0785H17.1511L16.9628 16.3502H16.8364C16.7952 16.417 16.7536 16.4847 16.7111 16.5532H16.5858C16.5434 16.6198 16.5018 16.6877 16.4594 16.7562H16.3337C16.3119 16.8008 16.2913 16.8461 16.2707 16.8905H16.1445V16.9584C15.9541 17.0762 15.4598 17.3604 15.0757 17.2288V17.1612C14.9493 17.1391 14.824 17.1157 14.6979 17.0935V17.0259H14.5725V16.9584C14.384 16.8905 14.1952 16.823 14.0057 16.7562C13.9851 16.7108 13.9644 16.6643 13.9435 16.6198H13.8173L13.7543 16.4847C13.6289 16.3715 13.5036 16.2602 13.3774 16.1472V16.0119H13.3144C13.2542 15.9287 13.2676 15.8805 13.1885 15.8088C13.1679 15.5159 13.1461 15.222 13.1255 14.9291H13.0625C13.084 14.411 13.1049 13.8918 13.1255 13.3736H13.1885L13.2512 12.494H13.3144C13.336 12.2908 13.3566 12.0879 13.3774 11.8859H13.4405C13.482 11.6152 13.5245 11.3445 13.5659 11.0738H13.6289L13.6921 10.6001H13.7543V10.3973H13.8173V10.1952H13.8803V9.9921H13.9435V9.78914H14.0057C14.0481 9.58606 14.0897 9.3831 14.132 9.18118H14.1951V9.04583H14.2573V8.84275H14.3207L14.3837 8.50433H14.4459V8.36898H14.5092V8.1659H14.5722C14.6135 8.03055 14.6559 7.89521 14.6975 7.76079H14.7606C14.7813 7.66994 14.803 7.58002 14.8237 7.48916C14.8651 7.46697 14.9076 7.44467 14.949 7.42143C14.9708 7.33151 14.9914 7.24159 15.0122 7.1519L15.2006 7.01539V6.88121C15.3065 6.79012 15.4111 6.70043 15.5157 6.61051C15.5997 6.49735 15.6835 6.38431 15.7673 6.27209H15.8926C15.935 6.20435 15.9764 6.13674 16.0188 6.06994H16.1441C16.1659 6.0237 16.1865 5.97909 16.2073 5.93378C16.2911 5.91147 16.3751 5.88835 16.4593 5.86697V5.79843C16.5856 5.75393 16.7109 5.70851 16.8362 5.66389V5.59535H17.0879C17.2628 5.53343 17.5943 5.36148 17.9061 5.46105ZM17.5289 7.5569H17.2774C17.1306 7.80447 16.984 8.05298 16.837 8.30136V8.50328H16.7739V8.63967H16.7109C16.6902 8.77502 16.6694 8.90932 16.6487 9.04467H16.5855V9.24775H16.5223V9.45083H16.4593V9.65391H16.3971C16.3755 9.83468 16.3547 10.0145 16.3341 10.1953C16.2165 10.5482 16.0645 10.9745 16.0194 11.4124H16.0824C16.125 11.3448 16.1663 11.2782 16.2078 11.2094H16.3339C16.4179 11.0972 16.5017 10.9852 16.5855 10.8721H16.6487V10.7356L16.9002 10.5337V10.3984C16.9416 10.3762 16.984 10.3529 17.0256 10.3308C17.0466 10.2399 17.0673 10.15 17.089 10.0601C17.1306 10.0379 17.173 10.0146 17.2144 9.99233V9.85698H17.2774V9.72164H17.3406V9.51856H17.4028V9.38426H17.4659V9.18118H17.5289C17.6788 8.77223 17.6514 8.25315 17.6543 7.69317C17.5723 7.63717 17.5801 7.64577 17.5289 7.5569Z" fill="#111111"/>
<path d="M34.0728 5.46123V5.5278H34.1981C34.2199 5.57323 34.2405 5.61865 34.2611 5.66396H34.3244V6.27215H34.2611C34.2199 6.49742 34.1774 6.72246 34.1358 6.94889H34.0728V7.15197H34.0098L33.9467 7.62458H33.8845V7.82766H33.8212C33.7784 8.05386 33.737 8.27912 33.6946 8.50335H33.6324V8.77509H33.5693V8.97817H33.5061V9.18125H33.443C33.4223 9.33867 33.4017 9.4962 33.3808 9.65386H33.3178L33.1925 10.3306H33.1294C33.087 10.5559 33.0454 10.7821 33.003 11.0062H32.9408V11.278H32.8778V11.481H32.8148V11.6838H32.7517V11.9536H32.689C32.5211 12.5839 32.3536 13.2161 32.1857 13.8474H32.2479C32.3684 13.6262 32.557 13.5257 32.6258 13.2384C32.6953 13.223 32.9627 13.1061 33.0661 13.1718V13.2384C33.1945 13.2695 34.1013 13.9046 34.1361 13.9819V14.2535C34.0561 14.3261 34.0701 14.3723 34.0099 14.4565H33.9468V14.5909C33.8846 14.6364 33.8213 14.6806 33.7578 14.7263V14.8626C33.6532 14.9525 33.5486 15.0424 33.443 15.1321V15.2675C33.2971 15.4028 33.1501 15.5381 33.003 15.6735L32.8777 15.8766H32.7516C32.6671 15.9888 32.5833 16.1017 32.5004 16.2141H32.3743C32.3537 16.2603 32.3328 16.3048 32.3111 16.3502H32.1857C32.1651 16.3948 32.1433 16.4401 32.1227 16.4848L31.9344 16.5533V16.6199C31.808 16.6655 31.6828 16.7097 31.556 16.7563V16.8231H31.3676V16.8906C31.0747 16.9584 30.7806 17.0259 30.4872 17.0935V17.0259H30.2989V16.9584C30.0622 16.7312 30.0622 16.3522 29.9211 16.011H29.8588C29.7956 15.8088 29.7325 15.6059 29.6694 15.4028C29.5981 15.4598 29.6601 15.3951 29.6072 15.4705C29.5036 15.5634 29.4482 15.7054 29.355 15.8088L29.1657 15.9442V16.0795C29.0829 16.1473 28.998 16.2141 28.915 16.2817C28.5537 16.6712 28.3319 17.025 27.5937 17.0259V16.9584C27.4891 16.9362 27.3841 16.9128 27.2785 16.8906L27.1532 16.6877H27.0268C26.9855 16.6199 26.9431 16.5533 26.9015 16.4848C26.7338 16.3271 26.5661 16.1695 26.3985 16.011V15.8766C26.3571 15.8543 26.314 15.831 26.2728 15.8088V15.6735C26.2304 15.6513 26.1888 15.6281 26.1464 15.6059V15.4028H26.0833V15.2675H26.0211C25.8465 14.7909 25.969 13.7131 26.0833 13.3059C26.1051 13.0586 26.1257 12.8102 26.1464 12.5627C26.3985 11.6375 26.6502 10.7134 26.9016 9.7899H26.9646V9.65374H27.0268C27.0692 9.45066 27.1108 9.24874 27.1532 9.04578H27.2163C27.237 8.93274 27.2578 8.81935 27.2785 8.70631H27.3417V8.57201H27.4047V8.36893H27.4684C27.489 8.27901 27.5097 8.18909 27.5306 8.09824H27.5936V7.96289H27.6566V7.75981H27.7196V7.62446H27.7818V7.49005C27.8242 7.46693 27.8658 7.44462 27.9082 7.4215C27.9494 7.28731 27.9919 7.15197 28.0335 7.01546C28.0759 6.99431 28.1175 6.9712 28.1596 6.94889V6.81238C28.2218 6.76788 28.285 6.72246 28.3482 6.67819V6.54285C28.4735 6.42969 28.6001 6.31642 28.7256 6.20535C28.7471 6.15993 28.768 6.1145 28.7886 6.06919H28.9147C28.9357 6.02376 28.9563 5.97927 28.9769 5.93384H29.1033V5.86704C29.187 5.84392 29.271 5.8208 29.3546 5.79931V5.73076H29.5437V5.66396H29.7951V5.59623H30.2352V5.52769H30.5499V5.59623H30.9904V5.66396H31.1789V5.73076H31.3673V5.79931C31.4513 5.82069 31.535 5.84381 31.619 5.86704V5.93384C31.7034 5.95696 31.7872 5.97927 31.8708 6.00157C31.8916 6.047 31.9134 6.09243 31.934 6.13692L31.9972 6.06919H32.0594V5.79931H32.1225V5.66396L32.3108 5.5278V5.46123H34.0728ZM30.5499 7.8287C30.4869 7.91862 30.4237 8.00855 30.3615 8.09847H30.2985C30.2777 8.18839 30.2561 8.27924 30.2353 8.36916C30.1939 8.39147 30.1516 8.41459 30.11 8.43689V8.57224H30.047L29.9839 8.84189H29.9202V9.04497H29.8583L29.795 9.31671H29.732V9.51979H29.6698V9.65409H29.6068V9.85717H29.5437V9.99251H29.4804C29.4598 10.1279 29.4392 10.2632 29.4185 10.3986H29.3551V10.5339H29.2921V10.7358H29.2291V10.9389H29.1669V11.1419H29.1039V11.4126C28.8713 12.1036 28.6217 12.8623 28.5999 13.7798H28.9151L29.292 13.306H29.355V13.1707C29.4184 13.1264 29.4803 13.0811 29.5436 13.0353V12.9011C29.586 12.8778 29.6273 12.8547 29.6697 12.8335C29.6903 12.7424 29.7113 12.6526 29.7319 12.5617L29.8583 12.4951V12.3588H29.9202V12.2244L30.0471 12.0891V11.9537C30.0887 11.9315 30.131 11.9092 30.1724 11.8861C30.1942 11.7962 30.2148 11.7061 30.2355 11.6154H30.2988C30.3194 11.5255 30.34 11.4357 30.3618 11.3447H30.424V11.1416H30.487V11.0074H30.55C30.5916 10.8709 30.634 10.7356 30.6753 10.6014H30.7386V10.3983H30.8017V10.263H30.8647V10.06H30.9269V9.92467H30.9899C31.0105 9.78932 31.0328 9.65397 31.0536 9.51967C31.2429 9.04973 31.4937 8.49684 31.5567 7.89551C31.4847 7.83846 31.5471 7.90434 31.4937 7.8287C31.1374 7.8064 30.8954 7.75923 30.5499 7.8287Z" fill="#111111"/>
<path d="M56.6553 5.46123V5.5278H56.7816L56.8443 5.66396H56.908V6.27215H56.8443C56.8037 6.49742 56.7613 6.72246 56.7189 6.94889H56.6553V7.15197H56.5928C56.5723 7.30846 56.5513 7.46693 56.5301 7.62458H56.4672V7.82766H56.4047C56.3622 8.05386 56.3201 8.27912 56.2794 8.50335H56.2158V8.77509H56.1521V8.97817H56.0894V9.18125H56.0269C56.0057 9.33867 55.9844 9.4962 55.9642 9.65386H55.9015C55.8591 9.88005 55.8168 10.1044 55.7762 10.3306H55.7127C55.6703 10.5559 55.6288 10.7821 55.5854 11.0062H55.5237V11.278H55.4601V11.481H55.3976V11.6838H55.3349V11.9536H55.272C55.1046 12.5839 54.9366 13.2161 54.769 13.8474H54.8316C54.9512 13.6262 55.1402 13.5257 55.2097 13.2384C55.278 13.223 55.545 13.1061 55.649 13.1718V13.2384C55.7782 13.2695 56.6842 13.9046 56.7188 13.9819V14.2535C56.6398 14.3261 56.6534 14.3723 56.5927 14.4565H56.53V14.5909L56.341 14.7263V14.8626C56.2369 14.9525 56.1317 15.0424 56.0267 15.1321V15.2675C55.8803 15.4028 55.7338 15.5381 55.5853 15.6735C55.5448 15.7412 55.5025 15.8088 55.46 15.8766H55.3348C55.2516 15.9888 55.1668 16.1017 55.084 16.2141H54.9567C54.9365 16.2603 54.9163 16.3048 54.8943 16.3502H54.7688C54.7486 16.3948 54.7265 16.4401 54.7062 16.4848L54.5174 16.5533V16.6199C54.3922 16.6655 54.2648 16.7097 54.1396 16.7563V16.8231H53.9505V16.8906C53.6576 16.9584 53.3626 17.0259 53.0696 17.0935V17.0259H52.8818V16.9584C52.6447 16.7312 52.6447 16.3522 52.5039 16.011H52.4412C52.3776 15.8088 52.3149 15.6059 52.2522 15.4028C52.1809 15.4598 52.2426 15.3951 52.1897 15.4705C52.0865 15.5634 52.0305 15.7054 51.938 15.8088C51.8744 15.8543 51.8119 15.8988 51.7492 15.9442V16.0795C51.6663 16.1473 51.5815 16.2141 51.4987 16.2817C51.1362 16.6712 50.9144 17.025 50.1762 17.0259V16.9584C50.0721 16.9362 49.9669 16.9128 49.8619 16.8906C49.8195 16.8231 49.7771 16.7563 49.7367 16.6877H49.6113C49.569 16.6199 49.5266 16.5533 49.4841 16.4848L48.981 16.011V15.8766C48.9395 15.8543 48.897 15.831 48.8557 15.8088V15.6735C48.8133 15.6513 48.7717 15.6281 48.7293 15.6059V15.4028H48.6666V15.2675H48.6041C48.4295 14.7909 48.5511 13.7131 48.6666 13.3059C48.6881 13.0586 48.709 12.8102 48.7293 12.5627C48.981 11.6375 49.2325 10.7134 49.4841 9.7899H49.5476V9.65374H49.6113C49.6519 9.45066 49.6943 9.24874 49.7367 9.04578H49.7993C49.8195 8.93274 49.8408 8.81935 49.8619 8.70631H49.9246V8.57201H49.9872V8.36893H50.0509C50.0721 8.27901 50.0923 8.18909 50.1124 8.09824H50.1762V7.96289H50.2397V7.75981H50.3035V7.62446H50.365V7.49005C50.4074 7.46693 50.449 7.44462 50.4914 7.4215C50.5326 7.28731 50.5752 7.15197 50.6167 7.01546C50.6591 6.99431 50.7005 6.9712 50.7429 6.94889V6.81238C50.8066 6.76788 50.8683 6.72246 50.9319 6.67819V6.54285C51.0571 6.42969 51.1824 6.31642 51.3077 6.20535C51.3299 6.15993 51.35 6.1145 51.3715 6.06919H51.4988C51.519 6.02376 51.5392 5.97927 51.5603 5.93384H51.6866V5.86704C51.7704 5.84392 51.8544 5.8208 51.9381 5.79931V5.73076H52.1271V5.66396H52.3777V5.59623H52.8192V5.52769H53.1334V5.59623H53.5738V5.66396H53.7617V5.73076H53.9507V5.79931C54.0347 5.82069 54.1184 5.84381 54.2024 5.86704V5.93384C54.2862 5.95696 54.3701 5.97927 54.4539 6.00157C54.4752 6.047 54.4962 6.09243 54.5176 6.13692L54.5811 6.06919H54.6428V5.79931H54.7064V5.66396L54.8945 5.5278V5.46123H56.6553ZM53.1335 7.8287C53.0699 7.91862 53.0073 8.00855 52.9447 8.09847H52.882C52.8617 8.18839 52.8396 8.27924 52.8193 8.36916C52.7769 8.39147 52.7346 8.41459 52.6941 8.43689V8.57224H52.6303L52.5668 8.84189H52.5042V9.04497H52.4414C52.4211 9.13582 52.3991 9.22574 52.3778 9.31671H52.3151V9.51979H52.2525V9.65409H52.1899V9.85717H52.1273V9.99251H52.0636C52.0424 10.1279 52.0222 10.2632 52.0019 10.3986H51.9382V10.5339H51.8746V10.7358H51.8121V10.9389H51.7494V11.1419H51.6868V11.4126C51.4544 12.1036 51.2048 12.8623 51.1826 13.7798H51.4988C51.624 13.6223 51.7493 13.4637 51.8745 13.306H51.9381V13.1707C52.0018 13.1264 52.0634 13.0811 52.1271 13.0353V12.9011C52.1676 12.8778 52.21 12.8547 52.2524 12.8335C52.2738 12.7424 52.2947 12.6526 52.315 12.5617C52.3574 12.5397 52.399 12.5173 52.4413 12.4951V12.3588H52.5041V12.2244L52.6302 12.0891V11.9537C52.6718 11.9315 52.7143 11.9092 52.7555 11.8861C52.7768 11.7962 52.7979 11.7061 52.8192 11.6154H52.8819C52.9022 11.5255 52.9231 11.4357 52.9445 11.3447H53.0072V11.1416H53.0698V11.0074H53.1334C53.1748 10.8709 53.2173 10.7356 53.2587 10.6014H53.3224V10.3983H53.385V10.263H53.4476V10.06H53.5112V9.92467H53.5738L53.6365 9.51967C53.8264 9.04973 54.0771 8.49684 54.1398 7.89551C54.0684 7.83846 54.1302 7.90434 54.0771 7.8287C53.7214 7.8064 53.4784 7.75923 53.1335 7.8287Z" fill="#111111"/>
<path d="M36.4637 14.5243C37.3004 14.5088 37.4405 14.62 37.8471 15.0657C37.9103 15.11 37.9735 15.1556 38.0357 15.2C38.1089 15.314 38.0385 15.3526 38.1618 15.4697C38.1937 15.924 38.2548 16.3386 38.0357 16.6878C37.9517 16.7564 37.8689 16.8232 37.784 16.8907C37.6644 17.0193 37.6732 17.1062 37.4703 17.1614C37.297 17.3577 36.3556 17.4397 36.1482 17.229C35.8671 17.1644 35.8061 17.0077 35.6461 16.8232C35.6037 16.801 35.5613 16.7775 35.52 16.7564V16.62H35.4568C35.3847 16.4828 35.4568 16.4692 35.3314 16.3503C35.3165 15.8543 35.3373 15.4232 35.52 15.1322C35.5831 15.0868 35.6461 15.0425 35.7083 14.9969C35.8267 14.8685 35.8198 14.7814 36.023 14.7264V14.6596C36.17 14.6365 36.316 14.6142 36.4634 14.5911L36.4637 14.5243Z" fill="#111111"/>
<path d="M78.9245 5.73088C78.9669 5.89713 79.0719 6.04991 79.1124 6.20465C79.0719 6.52077 79.0295 6.83596 78.9871 7.15208H78.9245C78.9042 7.3317 78.8832 7.51247 78.8618 7.69231H78.7992V7.89539H78.7365V8.16608H78.6728V8.43678H78.6092V8.70747H78.5475C78.5256 8.86513 78.5053 9.02243 78.484 9.18008H78.4204C78.4003 9.36086 78.3798 9.54163 78.3576 9.72147C78.2323 10.1158 78.1062 10.6127 77.9809 11.0062C77.9595 11.1869 77.9394 11.3677 77.9171 11.5476H77.8545V11.7506H77.7918V12.0213H77.7293V12.2909H77.6657V12.5627H77.603C77.5817 12.7203 77.5606 12.8777 77.5405 13.0364H77.4778V13.3059H77.414C77.3929 13.4859 77.3728 13.6675 77.3523 13.8473H77.2888V14.0504H77.2252V14.3211H77.1626V14.5908H77.1V14.8613H77.0371V15.132H76.9744C76.932 15.3796 76.8899 15.6281 76.8492 15.8755C76.7663 16.1345 76.6528 16.4682 76.5966 16.7562C76.1186 17.0384 74.99 17.0229 74.3316 16.8905C74.3201 16.179 74.537 15.6511 74.7096 15.1319C74.7307 14.9523 74.752 14.7714 74.7723 14.5907H74.8348V14.3878H74.8984C74.9399 14.1402 74.9824 13.8917 75.0236 13.6442H75.0875V13.3735H75.1501V13.1028H75.2127V12.8997H75.2753C75.3177 12.6524 75.3591 12.404 75.4015 12.1566H75.4653C75.4856 11.9757 75.5057 11.795 75.5268 11.6152H75.5905C75.6117 11.4575 75.6319 11.2989 75.6541 11.1426H75.7168C75.8373 10.7945 75.8314 10.4553 75.842 9.99205H75.7168C75.6541 10.082 75.5905 10.172 75.5268 10.2627H75.4653V10.3981C75.4229 10.4204 75.3805 10.4436 75.338 10.4658C75.3177 10.5557 75.2975 10.6466 75.2753 10.7365C75.2339 10.7587 75.1914 10.7808 75.1501 10.8031C75.1299 10.8941 75.1077 10.9841 75.0875 11.0738C75.0451 11.0969 75.0027 11.1192 74.9621 11.1426C74.94 11.2322 74.9197 11.3222 74.8984 11.4121C74.856 11.4354 74.8147 11.4575 74.7723 11.4798V11.6152H74.7096V11.7505H74.647V11.8859L74.5215 12.0212V12.1566C74.4782 12.1787 74.4377 12.2011 74.3953 12.2242V12.3595L74.2701 12.4939V12.6302H74.2062V12.7656H74.1428V12.8997H74.0801V13.0363H74.0174V13.1704H73.9549V13.3058L73.8284 13.4411V13.5765C73.7872 13.5988 73.7447 13.622 73.7032 13.6442C73.682 13.7341 73.6608 13.825 73.6396 13.9149L73.5144 14.0503V14.1847H73.4517V14.321H73.388V14.4563H73.3254V14.5907H73.2627V14.727H73.2V14.8612H73.1366V14.9965H73.0748V15.1319L72.9475 15.2672V15.4026C72.907 15.4249 72.8646 15.4481 72.8222 15.4703V15.6056H72.7597V15.741H72.697V15.8754H72.6332V16.0117L72.508 16.147V16.2815H72.4444C72.4241 16.35 72.4039 16.4177 72.3807 16.4845C72.3401 16.5077 72.2977 16.53 72.2553 16.5531V16.6875C72.1927 16.7106 72.1301 16.7329 72.0675 16.756V16.8228C71.9903 16.8874 71.9461 16.874 71.8796 16.9582H70.3693C70.2274 16.697 70.1774 16.7455 70.1802 16.2815C70.3085 16.1228 70.2334 15.9574 70.3066 15.741H70.3693V15.5379H70.4318V15.2672H70.4945C70.5166 15.0864 70.5369 14.9067 70.5572 14.727H70.6209V14.5239H70.6845C70.7249 14.2755 70.7673 14.028 70.8097 13.7796H70.8723C70.9138 13.5089 70.9563 13.2382 70.9975 12.9686C71.3379 11.9526 71.5403 10.7384 71.8796 9.72124C71.92 9.45136 71.9624 9.17985 72.0048 8.9102H72.0675V8.70712H72.1301C72.1725 8.45955 72.2149 8.21116 72.2553 7.96359H72.3192V7.69196H72.3807C72.4039 7.51212 72.4241 7.33135 72.4444 7.15174H72.508C72.5293 6.99304 72.5494 6.83562 72.5717 6.67692C72.6525 6.41993 72.7665 6.08522 72.8222 5.79827C72.9128 5.74599 73.0748 5.6118 73.1366 5.52838H74.962C75.0612 5.71311 75.1334 5.6937 75.15 6.00123C74.8772 6.85874 74.6045 7.71508 74.3316 8.57178H74.3953V8.50405C74.5698 8.34244 74.6401 8.10567 74.7723 7.89493C74.8147 7.87274 74.856 7.85043 74.8984 7.82719V7.69185C74.9621 7.64735 75.0236 7.60193 75.0875 7.55766V7.42115C75.1299 7.39896 75.1703 7.37573 75.2127 7.35435V7.219C75.2753 7.17358 75.338 7.12815 75.4015 7.08273V6.94854C75.4653 6.90288 75.5268 6.85862 75.5905 6.81319V6.67669C75.6318 6.65554 75.6746 6.63242 75.7168 6.61012V6.47477C75.7795 6.42934 75.842 6.38392 75.9049 6.33942V6.20407C75.947 6.18177 75.9896 6.15958 76.0301 6.13634C76.0937 6.04642 76.1571 5.9565 76.2189 5.86646H76.3454C76.3655 5.82104 76.3866 5.77677 76.4079 5.7303H76.5332V5.6635H76.6605V5.59495C76.9661 5.45391 77.9895 5.4818 78.4204 5.52815C78.6449 5.55208 78.7289 5.67767 78.9245 5.73088Z" fill="#111111"/>
</svg>
